<svg id="Layer_1" data-name="Layer 1" xmlns="http://www.w3.org/2000/svg" viewBox="0 0 740.95 232.09"><defs><style>.cls-1{fill:#f2c25d;}.cls-2{font-size:14px;fill:#231f20;}.cls-12,.cls-2,.cls-7{font-family:Lato-Bold, Lato;font-weight:700;}.cls-3{letter-spacing:-0.02em;}.cls-4{letter-spacing:-0.02em;}.cls-12,.cls-5,.cls-7{fill:#58595b;}.cls-5{opacity:0;}.cls-6,.cls-9{fill:none;}.cls-6{stroke:#808285;stroke-width:0.75px;}.cls-6,.cls-8,.cls-9{stroke-miterlimit:10;}.cls-7{font-size:9px;}.cls-8{fill:#bcbec0;stroke:#939598;stroke-width:0.25px;}.cls-9{stroke:#4c6eb5;stroke-linecap:round;stroke-width:2px;}.cls-10{opacity:0.75;}.cls-11{fill:#808285;}.cls-12{font-size:8.07px;}.cls-13{letter-spacing:-0.03em;}</style></defs><title>keto</title><rect class="cls-1" x="51.04" y="41.9" width="164.16" height="13.49"/><text class="cls-2" transform="translate(52.04 53.64)">The <tspan class="cls-3" x="26.47" y="0">K</tspan><tspan x="35.94" y="0">etogenic (</tspan><tspan class="cls-3" x="96.86" y="0">K</tspan><tspan x="106.33" y="0">et</tspan><tspan class="cls-4" x="119.24" y="0">o</tspan><tspan x="126.94" y="0">) Diet</tspan></text><rect class="cls-5" x="21.44" y="59.58" width="222.62" height="162.67"/><line class="cls-6" x1="38.24" y1="208.08" x2="244.63" y2="208.08"/><text class="cls-7" transform="translate(26.41 211.71)">0</text><text class="cls-7" transform="translate(23.8 182.53)">20</text><text class="cls-7" transform="translate(23.8 153.36)">40</text><text class="cls-7" transform="translate(23.8 124.18)">60</text><text class="cls-7" transform="translate(23.8 95)">80</text><text class="cls-7" transform="translate(21.19 65.83)">100</text><line class="cls-8" x1="38.24" y1="178.91" x2="244.63" y2="178.91"/><line class="cls-8" x1="38.24" y1="149.73" x2="244.63" y2="149.73"/><line class="cls-8" x1="38.24" y1="120.55" x2="244.63" y2="120.55"/><line class="cls-8" x1="38.24" y1="91.38" x2="244.63" y2="91.38"/><line class="cls-8" x1="38.24" y1="62.2" x2="244.63" y2="62.2"/><line class="cls-9" x1="39.96" y1="206.62" x2="38.82" y2="206.62"/><line class="cls-9" x1="41.11" y1="206.62" x2="39.96" y2="206.62"/><line class="cls-9" x1="42.26" y1="206.62" x2="41.11" y2="206.62"/><line class="cls-9" x1="43.4" y1="206.62" x2="42.26" y2="206.62"/><line class="cls-9" x1="44.55" y1="206.62" x2="43.4" y2="206.62"/><line class="cls-9" x1="45.7" y1="206.62" x2="44.55" y2="206.62"/><line class="cls-9" x1="46.84" y1="206.62" x2="45.7" y2="206.62"/><line class="cls-9" x1="47.99" y1="206.62" x2="46.84" y2="206.62"/><line class="cls-9" x1="49.14" y1="206.62" x2="47.99" y2="206.62"/><line class="cls-9" x1="50.28" y1="206.62" x2="49.14" y2="206.62"/><line class="cls-9" x1="53.72" y1="206.62" x2="52.58" y2="206.62"/><line class="cls-9" x1="54.87" y1="206.62" x2="53.72" y2="206.62"/><line class="cls-9" x1="56.02" y1="206.62" x2="54.87" y2="206.62"/><line class="cls-9" x1="57.16" y1="206.62" x2="56.02" y2="206.62"/><line class="cls-9" x1="60.6" y1="206.62" x2="59.46" y2="206.62"/><line class="cls-9" x1="68.63" y1="206.62" x2="67.48" y2="206.62"/><line class="cls-9" x1="69.78" y1="206.62" x2="68.63" y2="206.62"/><line class="cls-9" x1="73.22" y1="206.62" x2="72.07" y2="206.62"/><line class="cls-9" x1="81.24" y1="206.62" x2="80.1" y2="206.62"/><line class="cls-9" x1="82.39" y1="206.62" x2="81.24" y2="206.62"/><line class="cls-9" x1="83.53" y1="206.62" x2="82.39" y2="206.62"/><line class="cls-9" x1="89.27" y1="206.62" x2="88.12" y2="206.62"/><line class="cls-9" x1="90.41" y1="206.62" x2="89.27" y2="206.62"/><line class="cls-9" x1="93.85" y1="206.62" x2="92.71" y2="206.62"/><line class="cls-9" x1="95" y1="206.62" x2="93.85" y2="206.62"/><line class="cls-9" x1="96.15" y1="206.62" x2="95" y2="206.62"/><line class="cls-9" x1="97.29" y1="206.62" x2="96.15" y2="206.62"/><line class="cls-9" x1="98.44" y1="206.62" x2="97.29" y2="206.62"/><line class="cls-9" x1="99.59" y1="206.62" x2="98.44" y2="206.62"/><line class="cls-9" x1="100.73" y1="206.62" x2="99.59" y2="206.62"/><line class="cls-9" x1="101.88" y1="206.62" x2="100.73" y2="206.62"/><line class="cls-9" x1="103.03" y1="206.62" x2="101.88" y2="206.62"/><line class="cls-9" x1="104.17" y1="206.62" x2="103.03" y2="206.62"/><line class="cls-9" x1="105.32" y1="206.62" x2="104.17" y2="206.62"/><line class="cls-9" x1="108.76" y1="206.62" x2="107.61" y2="206.62"/><line class="cls-9" x1="109.91" y1="206.62" x2="108.76" y2="206.62"/><line class="cls-9" x1="111.05" y1="206.62" x2="109.91" y2="206.62"/><line class="cls-9" x1="112.2" y1="206.62" x2="111.05" y2="206.62"/><line class="cls-9" x1="113.35" y1="206.62" x2="112.2" y2="206.62"/><line class="cls-9" x1="114.49" y1="206.62" x2="113.35" y2="206.62"/><line class="cls-9" x1="115.64" y1="206.62" x2="114.49" y2="206.62"/><line class="cls-9" x1="116.79" y1="206.62" x2="115.64" y2="206.62"/><line class="cls-9" x1="117.93" y1="206.62" x2="116.79" y2="206.62"/><line class="cls-9" x1="119.08" y1="206.62" x2="117.93" y2="206.62"/><line class="cls-9" x1="120.23" y1="206.62" x2="119.08" y2="206.62"/><line class="cls-9" x1="121.37" y1="206.62" x2="120.23" y2="206.62"/><line class="cls-9" x1="122.52" y1="206.62" x2="121.37" y2="206.62"/><line class="cls-9" x1="123.67" y1="206.62" x2="122.52" y2="206.62"/><line class="cls-9" x1="124.81" y1="206.62" x2="123.67" y2="206.62"/><line class="cls-9" x1="125.96" y1="206.62" x2="124.81" y2="206.62"/><line class="cls-9" x1="127.11" y1="206.62" x2="125.96" y2="206.62"/><line class="cls-9" x1="128.25" y1="206.62" x2="127.11" y2="206.62"/><line class="cls-9" x1="129.4" y1="206.62" x2="128.25" y2="206.62"/><line class="cls-9" x1="130.55" y1="206.62" x2="129.4" y2="206.62"/><line class="cls-9" x1="131.69" y1="206.62" x2="130.55" y2="206.62"/><line class="cls-9" x1="132.84" y1="206.62" x2="131.69" y2="206.62"/><line class="cls-9" x1="133.99" y1="206.62" x2="132.84" y2="206.62"/><line class="cls-9" x1="135.13" y1="206.62" x2="133.99" y2="206.62"/><line class="cls-9" x1="136.28" y1="206.62" x2="135.13" y2="206.62"/><line class="cls-9" x1="137.43" y1="206.62" x2="136.28" y2="206.62"/><line class="cls-9" x1="138.57" y1="206.62" x2="137.43" y2="206.62"/><line class="cls-9" x1="139.72" y1="206.62" x2="138.57" y2="206.62"/><line class="cls-9" x1="140.87" y1="206.62" x2="139.72" y2="206.62"/><line class="cls-9" x1="142.01" y1="206.62" x2="140.87" y2="206.62"/><line class="cls-9" x1="143.16" y1="206.62" x2="142.01" y2="206.62"/><line class="cls-9" x1="144.31" y1="206.62" x2="143.16" y2="206.62"/><line class="cls-9" x1="145.45" y1="206.62" x2="144.31" y2="206.62"/><line class="cls-9" x1="146.6" y1="206.62" x2="145.45" y2="206.62"/><line class="cls-9" x1="147.74" y1="206.62" x2="146.6" y2="206.62"/><line class="cls-9" x1="148.89" y1="206.62" x2="147.74" y2="206.62"/><line class="cls-9" x1="150.04" y1="206.62" x2="148.89" y2="206.62"/><line class="cls-9" x1="151.18" y1="205.16" x2="150.04" y2="206.62"/><line class="cls-9" x1="152.33" y1="205.16" x2="151.18" y2="205.16"/><line class="cls-9" x1="153.48" y1="205.16" x2="152.33" y2="205.16"/><line class="cls-9" x1="154.62" y1="205.16" x2="153.48" y2="205.16"/><line class="cls-9" x1="155.77" y1="205.16" x2="154.62" y2="205.16"/><line class="cls-9" x1="156.92" y1="205.16" x2="155.77" y2="205.16"/><line class="cls-9" x1="158.06" y1="205.16" x2="156.92" y2="205.16"/><line class="cls-9" x1="159.21" y1="205.16" x2="158.06" y2="205.16"/><line class="cls-9" x1="160.36" y1="205.16" x2="159.21" y2="205.16"/><line class="cls-9" x1="161.5" y1="203.71" x2="160.36" y2="205.16"/><line class="cls-9" x1="162.65" y1="203.71" x2="161.5" y2="203.71"/><line class="cls-9" x1="163.8" y1="203.71" x2="162.65" y2="203.71"/><line class="cls-9" x1="164.94" y1="203.71" x2="163.8" y2="203.71"/><line class="cls-9" x1="166.09" y1="203.71" x2="164.94" y2="203.71"/><line class="cls-9" x1="167.24" y1="203.71" x2="166.09" y2="203.71"/><line class="cls-9" x1="168.38" y1="203.71" x2="167.24" y2="203.71"/><line class="cls-9" x1="169.53" y1="203.71" x2="168.38" y2="203.71"/><line class="cls-9" x1="170.68" y1="203.71" x2="169.53" y2="203.71"/><line class="cls-9" x1="171.82" y1="202.25" x2="170.68" y2="203.71"/><line class="cls-9" x1="172.97" y1="203.71" x2="171.82" y2="202.25"/><line class="cls-9" x1="174.12" y1="203.71" x2="172.97" y2="203.71"/><line class="cls-9" x1="175.26" y1="205.16" x2="174.12" y2="203.71"/><line class="cls-9" x1="176.41" y1="202.25" x2="175.26" y2="205.16"/><line class="cls-9" x1="177.56" y1="202.25" x2="176.41" y2="202.25"/><line class="cls-9" x1="178.7" y1="202.25" x2="177.56" y2="202.25"/><line class="cls-9" x1="179.85" y1="202.25" x2="178.7" y2="202.25"/><line class="cls-9" x1="181" y1="202.25" x2="179.85" y2="202.25"/><line class="cls-9" x1="182.14" y1="202.25" x2="181" y2="202.25"/><line class="cls-9" x1="183.29" y1="202.25" x2="182.14" y2="202.25"/><line class="cls-9" x1="184.44" y1="202.25" x2="183.29" y2="202.25"/><line class="cls-9" x1="185.58" y1="202.25" x2="184.44" y2="202.25"/><line class="cls-9" x1="186.73" y1="202.25" x2="185.58" y2="202.25"/><line class="cls-9" x1="187.88" y1="203.71" x2="186.73" y2="202.25"/><line class="cls-9" x1="189.02" y1="203.71" x2="187.88" y2="203.71"/><line class="cls-9" x1="190.17" y1="202.25" x2="189.02" y2="203.71"/><line class="cls-9" x1="191.32" y1="202.25" x2="190.17" y2="202.25"/><line class="cls-9" x1="192.46" y1="200.79" x2="191.32" y2="202.25"/><line class="cls-9" x1="193.61" y1="200.79" x2="192.46" y2="200.79"/><line class="cls-9" x1="194.76" y1="200.79" x2="193.61" y2="200.79"/><line class="cls-9" x1="195.9" y1="200.79" x2="194.76" y2="200.79"/><line class="cls-9" x1="197.05" y1="200.79" x2="195.9" y2="200.79"/><line class="cls-9" x1="198.2" y1="200.79" x2="197.05" y2="200.79"/><line class="cls-9" x1="199.34" y1="200.79" x2="198.2" y2="200.79"/><line class="cls-9" x1="200.49" y1="200.79" x2="199.34" y2="200.79"/><line class="cls-9" x1="201.64" y1="202.25" x2="200.49" y2="200.79"/><line class="cls-9" x1="202.78" y1="202.25" x2="201.64" y2="202.25"/><line class="cls-9" x1="203.93" y1="199.33" x2="202.78" y2="202.25"/><line class="cls-9" x1="205.08" y1="197.87" x2="203.93" y2="199.33"/><line class="cls-9" x1="206.22" y1="196.41" x2="205.08" y2="197.87"/><line class="cls-9" x1="207.37" y1="194.95" x2="206.22" y2="196.41"/><line class="cls-9" x1="208.52" y1="193.49" x2="207.37" y2="194.95"/><line class="cls-9" x1="209.66" y1="194.95" x2="208.52" y2="193.49"/><line class="cls-9" x1="210.81" y1="192.03" x2="209.66" y2="194.95"/><line class="cls-9" x1="211.96" y1="192.03" x2="210.81" y2="192.03"/><line class="cls-9" x1="213.1" y1="192.03" x2="211.96" y2="192.03"/><line class="cls-9" x1="214.25" y1="193.49" x2="213.1" y2="192.03"/><line class="cls-9" x1="215.39" y1="194.95" x2="214.25" y2="193.49"/><line class="cls-9" x1="216.54" y1="192.03" x2="215.39" y2="194.95"/><line class="cls-9" x1="217.69" y1="180.36" x2="216.54" y2="192.03"/><line class="cls-9" x1="218.83" y1="180.36" x2="217.69" y2="180.36"/><line class="cls-9" x1="219.98" y1="175.99" x2="218.83" y2="180.36"/><line class="cls-9" x1="221.13" y1="171.61" x2="219.98" y2="175.99"/><line class="cls-9" x1="222.27" y1="168.69" x2="221.13" y2="171.61"/><line class="cls-9" x1="223.42" y1="162.86" x2="222.27" y2="168.69"/><line class="cls-9" x1="224.57" y1="161.4" x2="223.42" y2="162.86"/><line class="cls-9" x1="225.71" y1="159.94" x2="224.57" y2="161.4"/><line class="cls-9" x1="226.86" y1="164.32" x2="225.71" y2="159.94"/><line class="cls-9" x1="228.01" y1="154.11" x2="226.86" y2="164.32"/><line class="cls-9" x1="229.15" y1="162.86" x2="228.01" y2="154.11"/><line class="cls-9" x1="230.3" y1="155.56" x2="229.15" y2="162.86"/><line class="cls-9" x1="231.45" y1="110.34" x2="230.3" y2="155.56"/><line class="cls-9" x1="232.59" y1="120.55" x2="231.45" y2="110.34"/><line class="cls-9" x1="233.74" y1="120.55" x2="232.59" y2="120.55"/><line class="cls-9" x1="234.89" y1="101.59" x2="233.74" y2="120.55"/><line class="cls-9" x1="236.03" y1="79.71" x2="234.89" y2="101.59"/><line class="cls-9" x1="237.18" y1="78.25" x2="236.03" y2="79.71"/><line class="cls-9" x1="238.33" y1="62.2" x2="237.18" y2="78.25"/><line class="cls-9" x1="239.47" y1="68.04" x2="238.33" y2="62.2"/><line class="cls-9" x1="240.62" y1="103.05" x2="239.47" y2="68.04"/><line class="cls-9" x1="241.77" y1="114.72" x2="240.62" y2="103.05"/><line class="cls-9" x1="242.91" y1="124.93" x2="241.77" y2="114.72"/><line class="cls-9" x1="244.06" y1="127.85" x2="242.91" y2="124.93"/><text class="cls-7" transform="translate(49.59 222.25)">2005</text><text class="cls-7" transform="translate(78.06 222.25)">2007</text><text class="cls-7" transform="translate(106.54 222.25)">2009</text><text class="cls-7" transform="translate(135.01 222.25)">2011</text><text class="cls-7" transform="translate(163.49 222.25)">2013</text><text class="cls-7" transform="translate(191.96 222.25)">2015</text><text class="cls-7" transform="translate(220.43 222.25)">2017</text><rect class="cls-1" x="346.24" y="41.91" width="63.89" height="13.49"/><text class="cls-2" transform="translate(349.14 53.65)">Whole30</text><rect class="cls-5" x="267.15" y="59.58" width="222.62" height="162.67"/><line class="cls-6" x1="283.38" y1="208.08" x2="489.77" y2="208.08"/><line class="cls-8" x1="283.38" y1="178.91" x2="489.77" y2="178.91"/><line class="cls-8" x1="283.38" y1="149.73" x2="489.77" y2="149.73"/><line class="cls-8" x1="283.38" y1="120.55" x2="489.77" y2="120.55"/><line class="cls-8" x1="283.38" y1="91.38" x2="489.77" y2="91.38"/><line class="cls-8" x1="283.38" y1="62.2" x2="489.77" y2="62.2"/><line class="cls-9" x1="381.41" y1="206.62" x2="380.26" y2="206.62"/><line class="cls-9" x1="384.85" y1="206.62" x2="383.7" y2="206.62"/><line class="cls-9" x1="386" y1="206.62" x2="384.85" y2="206.62"/><line class="cls-9" x1="387.14" y1="206.62" x2="386" y2="206.62"/><line class="cls-9" x1="388.29" y1="206.62" x2="387.14" y2="206.62"/><line class="cls-9" x1="389.44" y1="206.62" x2="388.29" y2="206.62"/><line class="cls-9" x1="390.58" y1="206.62" x2="389.44" y2="206.62"/><line class="cls-9" x1="391.73" y1="206.62" x2="390.58" y2="206.62"/><line class="cls-9" x1="392.88" y1="206.62" x2="391.73" y2="206.62"/><line class="cls-9" x1="394.02" y1="205.16" x2="392.88" y2="206.62"/><line class="cls-9" x1="395.17" y1="206.62" x2="394.02" y2="205.16"/><line class="cls-9" x1="396.32" y1="206.62" x2="395.17" y2="206.62"/><line class="cls-9" x1="397.46" y1="206.62" x2="396.32" y2="206.62"/><line class="cls-9" x1="398.61" y1="206.62" x2="397.46" y2="206.62"/><line class="cls-9" x1="399.76" y1="206.62" x2="398.61" y2="206.62"/><line class="cls-9" x1="400.9" y1="205.16" x2="399.76" y2="206.62"/><line class="cls-9" x1="402.05" y1="203.71" x2="400.9" y2="205.16"/><line class="cls-9" x1="403.2" y1="203.71" x2="402.05" y2="203.71"/><line class="cls-9" x1="404.34" y1="205.16" x2="403.2" y2="203.71"/><line class="cls-9" x1="405.49" y1="205.16" x2="404.34" y2="205.16"/><line class="cls-9" x1="406.64" y1="205.16" x2="405.49" y2="205.16"/><line class="cls-9" x1="407.78" y1="199.33" x2="406.64" y2="205.16"/><line class="cls-9" x1="408.93" y1="200.79" x2="407.78" y2="199.33"/><line class="cls-9" x1="410.08" y1="202.25" x2="408.93" y2="200.79"/><line class="cls-9" x1="411.22" y1="200.79" x2="410.08" y2="202.25"/><line class="cls-9" x1="412.37" y1="200.79" x2="411.22" y2="200.79"/><line class="cls-9" x1="413.52" y1="200.79" x2="412.37" y2="200.79"/><line class="cls-9" x1="414.66" y1="200.79" x2="413.52" y2="200.79"/><line class="cls-9" x1="415.81" y1="200.79" x2="414.66" y2="200.79"/><line class="cls-9" x1="416.96" y1="199.33" x2="415.81" y2="200.79"/><line class="cls-9" x1="418.1" y1="200.79" x2="416.96" y2="199.33"/><line class="cls-9" x1="419.25" y1="203.71" x2="418.1" y2="200.79"/><line class="cls-9" x1="420.4" y1="203.71" x2="419.25" y2="203.71"/><line class="cls-9" x1="421.54" y1="193.49" x2="420.4" y2="203.71"/><line class="cls-9" x1="422.69" y1="197.87" x2="421.54" y2="193.49"/><line class="cls-9" x1="423.84" y1="196.41" x2="422.69" y2="197.87"/><line class="cls-9" x1="424.98" y1="194.95" x2="423.84" y2="196.41"/><line class="cls-9" x1="426.13" y1="190.58" x2="424.98" y2="194.95"/><line class="cls-9" x1="427.28" y1="194.95" x2="426.13" y2="190.58"/><line class="cls-9" x1="428.42" y1="193.49" x2="427.28" y2="194.95"/><line class="cls-9" x1="429.57" y1="192.03" x2="428.42" y2="193.49"/><line class="cls-9" x1="430.72" y1="192.03" x2="429.57" y2="192.03"/><line class="cls-9" x1="431.86" y1="193.49" x2="430.72" y2="192.03"/><line class="cls-9" x1="433.01" y1="194.95" x2="431.86" y2="193.49"/><line class="cls-9" x1="434.15" y1="196.41" x2="433.01" y2="194.95"/><line class="cls-9" x1="435.3" y1="170.15" x2="434.15" y2="196.41"/><line class="cls-9" x1="436.45" y1="184.74" x2="435.3" y2="170.15"/><line class="cls-9" x1="437.59" y1="187.66" x2="436.45" y2="184.74"/><line class="cls-9" x1="438.74" y1="184.74" x2="437.59" y2="187.66"/><line class="cls-9" x1="439.89" y1="183.28" x2="438.74" y2="184.74"/><line class="cls-9" x1="441.03" y1="178.91" x2="439.89" y2="183.28"/><line class="cls-9" x1="442.18" y1="181.82" x2="441.03" y2="178.91"/><line class="cls-9" x1="443.33" y1="183.28" x2="442.18" y2="181.82"/><line class="cls-9" x1="444.47" y1="183.28" x2="443.33" y2="183.28"/><line class="cls-9" x1="445.62" y1="186.2" x2="444.47" y2="183.28"/><line class="cls-9" x1="446.77" y1="193.49" x2="445.62" y2="186.2"/><line class="cls-9" x1="447.91" y1="193.49" x2="446.77" y2="193.49"/><line class="cls-9" x1="449.06" y1="149.73" x2="447.91" y2="193.49"/><line class="cls-9" x1="450.21" y1="170.15" x2="449.06" y2="149.73"/><line class="cls-9" x1="451.35" y1="174.53" x2="450.21" y2="170.15"/><line class="cls-9" x1="452.5" y1="170.15" x2="451.35" y2="174.53"/><line class="cls-9" x1="453.65" y1="173.07" x2="452.5" y2="170.15"/><line class="cls-9" x1="454.79" y1="175.99" x2="453.65" y2="173.07"/><line class="cls-9" x1="455.94" y1="175.99" x2="454.79" y2="175.99"/><line class="cls-9" x1="457.09" y1="173.07" x2="455.94" y2="175.99"/><line class="cls-9" x1="458.23" y1="168.69" x2="457.09" y2="173.07"/><line class="cls-9" x1="459.38" y1="174.53" x2="458.23" y2="168.69"/><line class="cls-9" x1="460.53" y1="184.74" x2="459.38" y2="174.53"/><line class="cls-9" x1="461.67" y1="181.82" x2="460.53" y2="184.74"/><line class="cls-9" x1="462.82" y1="101.59" x2="461.67" y2="181.82"/><line class="cls-9" x1="463.97" y1="140.98" x2="462.82" y2="101.59"/><line class="cls-9" x1="465.11" y1="146.81" x2="463.97" y2="140.98"/><line class="cls-9" x1="466.26" y1="149.73" x2="465.11" y2="146.81"/><line class="cls-9" x1="467.41" y1="152.65" x2="466.26" y2="149.73"/><line class="cls-9" x1="468.55" y1="159.94" x2="467.41" y2="152.65"/><line class="cls-9" x1="469.7" y1="158.48" x2="468.55" y2="159.94"/><line class="cls-9" x1="470.85" y1="161.4" x2="469.7" y2="158.48"/><line class="cls-9" x1="471.99" y1="158.48" x2="470.85" y2="161.4"/><line class="cls-9" x1="473.14" y1="164.32" x2="471.99" y2="158.48"/><line class="cls-9" x1="474.29" y1="175.99" x2="473.14" y2="164.32"/><line class="cls-9" x1="475.43" y1="170.15" x2="474.29" y2="175.99"/><line class="cls-9" x1="476.58" y1="62.2" x2="475.43" y2="170.15"/><line class="cls-9" x1="477.73" y1="127.85" x2="476.58" y2="62.2"/><line class="cls-9" x1="478.87" y1="149.73" x2="477.73" y2="127.85"/><line class="cls-9" x1="480.02" y1="146.81" x2="478.87" y2="149.73"/><line class="cls-9" x1="481.17" y1="159.94" x2="480.02" y2="146.81"/><line class="cls-9" x1="482.31" y1="165.78" x2="481.17" y2="159.94"/><line class="cls-9" x1="483.46" y1="164.32" x2="482.31" y2="165.78"/><line class="cls-9" x1="484.61" y1="165.78" x2="483.46" y2="164.32"/><line class="cls-9" x1="485.75" y1="161.4" x2="484.61" y2="165.78"/><line class="cls-9" x1="486.9" y1="170.15" x2="485.75" y2="161.4"/><line class="cls-9" x1="488.05" y1="183.28" x2="486.9" y2="170.15"/><line class="cls-9" x1="489.19" y1="183.28" x2="488.05" y2="183.28"/><text class="cls-7" transform="translate(271.4 211.67)">0</text><text class="cls-7" transform="translate(268.79 182.49)">20</text><text class="cls-7" transform="translate(268.79 153.32)">40</text><text class="cls-7" transform="translate(268.79 124.14)">60</text><text class="cls-7" transform="translate(268.79 94.96)">80</text><text class="cls-7" transform="translate(266.18 65.79)">100</text><text class="cls-7" transform="translate(294.58 222.25)">2005</text><text class="cls-7" transform="translate(323.05 222.25)">2007</text><text class="cls-7" transform="translate(351.53 222.25)">2009</text><text class="cls-7" transform="translate(380 222.25)">2011</text><text class="cls-7" transform="translate(408.48 222.25)">2013</text><text class="cls-7" transform="translate(436.95 222.25)">2015</text><text class="cls-7" transform="translate(465.42 222.25)">2017</text><rect class="cls-1" x="559.06" y="41.9" width="131.68" height="13.49"/><text class="cls-2" transform="translate(561.57 53.64)">Intermittent Fasting</text><rect class="cls-5" x="511.57" y="59.58" width="222.62" height="162.67"/><line class="cls-6" x1="528.28" y1="208.06" x2="734.67" y2="208.06"/><line class="cls-8" x1="528.28" y1="178.88" x2="734.67" y2="178.88"/><line class="cls-8" x1="528.28" y1="149.71" x2="734.67" y2="149.71"/><line class="cls-8" x1="528.28" y1="120.53" x2="734.67" y2="120.53"/><line class="cls-8" x1="528.28" y1="91.35" x2="734.67" y2="91.35"/><line class="cls-8" x1="528.28" y1="62.18" x2="734.67" y2="62.18"/><line class="cls-9" x1="530" y1="207.06" x2="528.85" y2="207.06"/><line class="cls-9" x1="531.15" y1="207.06" x2="530" y2="207.06"/><line class="cls-9" x1="534.59" y1="207.06" x2="533.44" y2="207.06"/><line class="cls-9" x1="535.73" y1="207.06" x2="534.59" y2="207.06"/><line class="cls-9" x1="536.88" y1="207.06" x2="535.73" y2="207.06"/><line class="cls-9" x1="538.03" y1="207.06" x2="536.88" y2="207.06"/><line class="cls-9" x1="539.17" y1="207.06" x2="538.03" y2="207.06"/><line class="cls-9" x1="540.32" y1="207.06" x2="539.17" y2="207.06"/><line class="cls-9" x1="543.76" y1="207.06" x2="542.61" y2="207.06"/><line class="cls-9" x1="544.91" y1="207.06" x2="543.76" y2="207.06"/><line class="cls-9" x1="546.05" y1="207.06" x2="544.91" y2="207.06"/><line class="cls-9" x1="547.2" y1="207.06" x2="546.05" y2="207.06"/><line class="cls-9" x1="558.67" y1="207.06" x2="557.52" y2="207.06"/><line class="cls-9" x1="582.75" y1="205.6" x2="581.6" y2="205.6"/><line class="cls-9" x1="583.89" y1="205.6" x2="582.75" y2="205.6"/><line class="cls-9" x1="587.33" y1="205.6" x2="586.19" y2="205.6"/><line class="cls-9" x1="590.77" y1="205.6" x2="589.62" y2="205.6"/><line class="cls-9" x1="591.92" y1="205.6" x2="590.77" y2="205.6"/><line class="cls-9" x1="593.06" y1="205.6" x2="591.92" y2="205.6"/><line class="cls-9" x1="594.21" y1="205.6" x2="593.06" y2="205.6"/><line class="cls-9" x1="595.36" y1="205.6" x2="594.21" y2="205.6"/><line class="cls-9" x1="596.5" y1="205.6" x2="595.36" y2="205.6"/><line class="cls-9" x1="597.65" y1="205.6" x2="596.5" y2="205.6"/><line class="cls-9" x1="598.8" y1="205.6" x2="597.65" y2="205.6"/><line class="cls-9" x1="599.94" y1="205.6" x2="598.8" y2="205.6"/><line class="cls-9" x1="601.09" y1="205.6" x2="599.94" y2="205.6"/><line class="cls-9" x1="602.24" y1="205.6" x2="601.09" y2="205.6"/><line class="cls-9" x1="603.38" y1="205.6" x2="602.24" y2="205.6"/><line class="cls-9" x1="604.53" y1="205.6" x2="603.38" y2="205.6"/><line class="cls-9" x1="605.68" y1="205.6" x2="604.53" y2="205.6"/><line class="cls-9" x1="606.82" y1="205.6" x2="605.68" y2="205.6"/><line class="cls-9" x1="607.97" y1="205.6" x2="606.82" y2="205.6"/><line class="cls-9" x1="609.12" y1="205.6" x2="607.97" y2="205.6"/><line class="cls-9" x1="610.26" y1="205.6" x2="609.12" y2="205.6"/><line class="cls-9" x1="611.41" y1="205.6" x2="610.26" y2="205.6"/><line class="cls-9" x1="612.56" y1="205.6" x2="611.41" y2="205.6"/><line class="cls-9" x1="613.7" y1="205.6" x2="612.56" y2="205.6"/><line class="cls-9" x1="614.85" y1="205.6" x2="613.7" y2="205.6"/><line class="cls-9" x1="616" y1="205.6" x2="614.85" y2="205.6"/><line class="cls-9" x1="617.14" y1="205.6" x2="616" y2="205.6"/><line class="cls-9" x1="618.29" y1="205.6" x2="617.14" y2="205.6"/><line class="cls-9" x1="619.44" y1="205.6" x2="618.29" y2="205.6"/><line class="cls-9" x1="620.58" y1="204.14" x2="619.44" y2="205.6"/><line class="cls-9" x1="621.73" y1="205.6" x2="620.58" y2="204.14"/><line class="cls-9" x1="622.88" y1="205.6" x2="621.73" y2="205.6"/><line class="cls-9" x1="624.02" y1="204.14" x2="622.88" y2="205.6"/><line class="cls-9" x1="625.17" y1="204.14" x2="624.02" y2="204.14"/><line class="cls-9" x1="626.32" y1="202.68" x2="625.17" y2="204.14"/><line class="cls-9" x1="627.46" y1="204.14" x2="626.32" y2="202.68"/><line class="cls-9" x1="628.61" y1="202.68" x2="627.46" y2="204.14"/><line class="cls-9" x1="629.76" y1="202.68" x2="628.61" y2="202.68"/><line class="cls-9" x1="630.9" y1="202.68" x2="629.76" y2="202.68"/><line class="cls-9" x1="632.05" y1="202.68" x2="630.9" y2="202.68"/><line class="cls-9" x1="633.2" y1="202.68" x2="632.05" y2="202.68"/><line class="cls-9" x1="634.34" y1="202.68" x2="633.2" y2="202.68"/><line class="cls-9" x1="635.49" y1="202.68" x2="634.34" y2="202.68"/><line class="cls-9" x1="636.64" y1="202.68" x2="635.49" y2="202.68"/><line class="cls-9" x1="637.78" y1="201.22" x2="636.64" y2="202.68"/><line class="cls-9" x1="638.93" y1="201.22" x2="637.78" y2="201.22"/><line class="cls-9" x1="640.08" y1="196.85" x2="638.93" y2="201.22"/><line class="cls-9" x1="641.22" y1="196.85" x2="640.08" y2="196.85"/><line class="cls-9" x1="642.37" y1="196.85" x2="641.22" y2="196.85"/><line class="cls-9" x1="643.52" y1="196.85" x2="642.37" y2="196.85"/><line class="cls-9" x1="644.66" y1="195.39" x2="643.52" y2="196.85"/><line class="cls-9" x1="645.81" y1="186.64" x2="644.66" y2="195.39"/><line class="cls-9" x1="646.96" y1="185.18" x2="645.81" y2="186.64"/><line class="cls-9" x1="648.1" y1="189.55" x2="646.96" y2="185.18"/><line class="cls-9" x1="649.25" y1="191.01" x2="648.1" y2="189.55"/><line class="cls-9" x1="650.4" y1="192.47" x2="649.25" y2="191.01"/><line class="cls-9" x1="651.54" y1="192.47" x2="650.4" y2="192.47"/><line class="cls-9" x1="652.69" y1="186.64" x2="651.54" y2="192.47"/><line class="cls-9" x1="653.84" y1="188.1" x2="652.69" y2="186.64"/><line class="cls-9" x1="654.98" y1="185.18" x2="653.84" y2="188.1"/><line class="cls-9" x1="656.13" y1="180.8" x2="654.98" y2="185.18"/><line class="cls-9" x1="657.27" y1="183.72" x2="656.13" y2="180.8"/><line class="cls-9" x1="658.42" y1="185.18" x2="657.27" y2="183.72"/><line class="cls-9" x1="659.57" y1="183.72" x2="658.42" y2="185.18"/><line class="cls-9" x1="660.71" y1="186.64" x2="659.57" y2="183.72"/><line class="cls-9" x1="661.86" y1="186.64" x2="660.71" y2="186.64"/><line class="cls-9" x1="663.01" y1="189.55" x2="661.86" y2="186.64"/><line class="cls-9" x1="664.15" y1="191.01" x2="663.01" y2="189.55"/><line class="cls-9" x1="665.3" y1="189.55" x2="664.15" y2="191.01"/><line class="cls-9" x1="666.45" y1="185.18" x2="665.3" y2="189.55"/><line class="cls-9" x1="667.59" y1="188.1" x2="666.45" y2="185.18"/><line class="cls-9" x1="668.74" y1="189.55" x2="667.59" y2="188.1"/><line class="cls-9" x1="669.89" y1="186.64" x2="668.74" y2="189.55"/><line class="cls-9" x1="671.03" y1="186.64" x2="669.89" y2="186.64"/><line class="cls-9" x1="672.18" y1="185.18" x2="671.03" y2="186.64"/><line class="cls-9" x1="673.33" y1="186.64" x2="672.18" y2="185.18"/><line class="cls-9" x1="674.47" y1="189.55" x2="673.33" y2="186.64"/><line class="cls-9" x1="675.62" y1="192.47" x2="674.47" y2="189.55"/><line class="cls-9" x1="676.77" y1="193.93" x2="675.62" y2="192.47"/><line class="cls-9" x1="677.91" y1="195.39" x2="676.77" y2="193.93"/><line class="cls-9" x1="679.06" y1="192.47" x2="677.91" y2="195.39"/><line class="cls-9" x1="680.21" y1="189.55" x2="679.06" y2="192.47"/><line class="cls-9" x1="681.35" y1="186.64" x2="680.21" y2="189.55"/><line class="cls-9" x1="682.5" y1="186.64" x2="681.35" y2="186.64"/><line class="cls-9" x1="683.65" y1="188.1" x2="682.5" y2="186.64"/><line class="cls-9" x1="684.79" y1="188.1" x2="683.65" y2="188.1"/><line class="cls-9" x1="685.94" y1="185.18" x2="684.79" y2="188.1"/><line class="cls-9" x1="687.09" y1="183.72" x2="685.94" y2="185.18"/><line class="cls-9" x1="688.23" y1="185.18" x2="687.09" y2="183.72"/><line class="cls-9" x1="689.38" y1="188.1" x2="688.23" y2="185.18"/><line class="cls-9" x1="690.53" y1="189.55" x2="689.38" y2="188.1"/><line class="cls-9" x1="691.67" y1="191.01" x2="690.53" y2="189.55"/><line class="cls-9" x1="692.82" y1="189.55" x2="691.67" y2="191.01"/><line class="cls-9" x1="693.97" y1="182.26" x2="692.82" y2="189.55"/><line class="cls-9" x1="695.11" y1="183.72" x2="693.97" y2="182.26"/><line class="cls-9" x1="696.26" y1="182.26" x2="695.11" y2="183.72"/><line class="cls-9" x1="697.41" y1="177.88" x2="696.26" y2="182.26"/><line class="cls-9" x1="698.55" y1="177.88" x2="697.41" y2="177.88"/><line class="cls-9" x1="699.7" y1="177.88" x2="698.55" y2="177.88"/><line class="cls-9" x1="700.85" y1="180.8" x2="699.7" y2="177.88"/><line class="cls-9" x1="701.99" y1="182.26" x2="700.85" y2="180.8"/><line class="cls-9" x1="703.14" y1="185.18" x2="701.99" y2="182.26"/><line class="cls-9" x1="704.29" y1="186.64" x2="703.14" y2="185.18"/><line class="cls-9" x1="705.43" y1="186.64" x2="704.29" y2="186.64"/><line class="cls-9" x1="706.58" y1="186.64" x2="705.43" y2="186.64"/><line class="cls-9" x1="707.73" y1="177.88" x2="706.58" y2="186.64"/><line class="cls-9" x1="708.87" y1="174.97" x2="707.73" y2="177.88"/><line class="cls-9" x1="710.02" y1="157.46" x2="708.87" y2="174.97"/><line class="cls-9" x1="711.17" y1="163.3" x2="710.02" y2="157.46"/><line class="cls-9" x1="712.31" y1="154.54" x2="711.17" y2="163.3"/><line class="cls-9" x1="713.46" y1="135.58" x2="712.31" y2="154.54"/><line class="cls-9" x1="714.61" y1="141.41" x2="713.46" y2="135.58"/><line class="cls-9" x1="715.75" y1="148.71" x2="714.61" y2="141.41"/><line class="cls-9" x1="716.9" y1="154.54" x2="715.75" y2="148.71"/><line class="cls-9" x1="718.05" y1="150.17" x2="716.9" y2="154.54"/><line class="cls-9" x1="719.19" y1="141.41" x2="718.05" y2="150.17"/><line class="cls-9" x1="720.34" y1="148.71" x2="719.19" y2="141.41"/><line class="cls-9" x1="721.48" y1="84.52" x2="720.34" y2="148.71"/><line class="cls-9" x1="722.63" y1="104.94" x2="721.48" y2="84.52"/><line class="cls-9" x1="723.78" y1="102.02" x2="722.63" y2="104.94"/><line class="cls-9" x1="724.92" y1="96.19" x2="723.78" y2="102.02"/><line class="cls-9" x1="726.07" y1="81.6" x2="724.92" y2="96.19"/><line class="cls-9" x1="727.22" y1="72.85" x2="726.07" y2="81.6"/><line class="cls-9" x1="728.36" y1="61.18" x2="727.22" y2="72.85"/><line class="cls-9" x1="729.51" y1="69.93" x2="728.36" y2="61.18"/><line class="cls-9" x1="730.66" y1="100.57" x2="729.51" y2="69.93"/><line class="cls-9" x1="731.8" y1="102.02" x2="730.66" y2="100.57"/><line class="cls-9" x1="732.95" y1="116.61" x2="731.8" y2="102.02"/><line class="cls-9" x1="734.1" y1="116.61" x2="732.95" y2="116.61"/><text class="cls-7" transform="translate(516.61 211.4)">0</text><text class="cls-7" transform="translate(514 182.22)">20</text><text class="cls-7" transform="translate(514 153.05)">40</text><text class="cls-7" transform="translate(514 123.87)">60</text><text class="cls-7" transform="translate(514 94.69)">80</text><text class="cls-7" transform="translate(511.39 65.52)">100</text><text class="cls-7" transform="translate(539.79 222.25)">2005</text><text class="cls-7" transform="translate(568.27 222.25)">2007</text><text class="cls-7" transform="translate(596.74 222.25)">2009</text><text class="cls-7" transform="translate(625.22 222.25)">2011</text><text class="cls-7" transform="translate(653.69 222.25)">2013</text><text class="cls-7" transform="translate(682.17 222.25)">2015</text><text class="cls-7" transform="translate(710.64 222.25)">2017</text><g class="cls-10"><line class="cls-6" x1="10.06" y1="63" x2="10.06" y2="96.52"/><polygon class="cls-11" points="7.28 65.11 10.06 63.93 12.84 65.11 10.06 58.52 7.28 65.11"/></g><text class="cls-12" transform="translate(12.8 168.23) rotate(-90) scale(0.91 1)">Google Search Ind<tspan class="cls-13" x="65.11" y="0">e</tspan><tspan x="69.18" y="0">x</tspan></text><g class="cls-10"><line class="cls-6" x1="10.06" y1="206.33" x2="10.06" y2="172.81"/><polygon class="cls-11" points="12.84 204.22 10.06 205.4 7.28 204.22 10.06 210.81 12.84 204.22"/></g><text class="cls-2" transform="translate(5.85 20.28)">Google Search Interest (2004 - 2018)</text></svg>