<svg id="Layer_1" data-name="Layer 1" xmlns="http://www.w3.org/2000/svg" viewBox="0 0 755.18 484.13"><defs><style>.cls-1{fill:#e0e1e2;opacity:0.65;}.cls-2{fill:#f3f4f4;opacity:0.4;}.cls-10,.cls-3{opacity:0.75;}.cls-10,.cls-4,.cls-6{fill:none;stroke-miterlimit:10;}.cls-10,.cls-4{stroke:#808285;stroke-width:0.75px;}.cls-5{font-size:12px;}.cls-15,.cls-5,.cls-8{fill:#58595b;}.cls-12,.cls-15,.cls-5,.cls-8{font-family:Lato-Bold, Lato;font-weight:700;}.cls-6{stroke:#4c6eb5;stroke-linecap:round;stroke-width:1.5px;}.cls-7{fill:#fdc228;}.cls-8{font-size:11px;}.cls-9{fill:#808285;}.cls-11{letter-spacing:-0.03em;}.cls-12,.cls-15{font-size:14px;}.cls-12{fill:#231f20;}.cls-13{letter-spacing:-0.02em;}.cls-14{fill:#f2c25d;}</style></defs><title>monthly</title><rect class="cls-1" x="46.26" y="43.32" width="48.89" height="409.77"/><rect class="cls-2" x="94.71" y="43.32" width="46.95" height="409.77"/><rect class="cls-1" x="141.75" y="43.32" width="47.29" height="409.77"/><rect class="cls-2" x="188.73" y="43.32" width="46.93" height="409.77"/><rect class="cls-1" x="235.66" y="43.32" width="47.22" height="409.77"/><rect class="cls-2" x="282.98" y="43.32" width="46.93" height="409.77"/><rect class="cls-1" x="329.91" y="43.32" width="47.26" height="409.77"/><rect class="cls-2" x="376.42" y="43.32" width="47.21" height="409.77"/><rect class="cls-1" x="423.71" y="43.32" width="47.43" height="409.77"/><rect class="cls-2" x="470.99" y="43.32" width="46.93" height="409.77"/><rect class="cls-1" x="517.33" y="43.32" width="47.5" height="409.77"/><rect class="cls-2" x="564.97" y="43.32" width="46.93" height="409.77"/><rect class="cls-1" x="611.49" y="42.33" width="46.79" height="409.77"/><rect class="cls-1" x="705.31" y="42.43" width="48.89" height="409.77"/><rect class="cls-2" x="658.35" y="43.32" width="46.93" height="409.77"/><g class="cls-3"><line class="cls-4" x1="46.28" y1="452.28" x2="746.35" y2="452.28"/></g><text class="cls-5" transform="translate(27.43 453.87)">20</text><text class="cls-5" transform="translate(27.43 355.12)">40</text><text class="cls-5" transform="translate(26.43 253.6)">60</text><text class="cls-5" transform="translate(27.43 151.17)">80</text><text class="cls-5" transform="translate(20.47 50.74)">100</text><line class="cls-6" x1="52.15" y1="65.12" x2="48.24" y2="44.74"/><line class="cls-6" x1="56.06" y1="85.49" x2="52.15" y2="65.12"/><line class="cls-6" x1="59.97" y1="146.62" x2="56.06" y2="85.49"/><line class="cls-6" x1="63.88" y1="116.06" x2="59.97" y2="146.62"/><line class="cls-6" x1="67.79" y1="197.57" x2="63.88" y2="116.06"/><line class="cls-6" x1="71.71" y1="161.91" x2="67.79" y2="197.57"/><line class="cls-6" x1="75.62" y1="263.79" x2="71.71" y2="161.91"/><line class="cls-6" x1="79.53" y1="233.23" x2="75.62" y2="263.79"/><line class="cls-6" x1="83.44" y1="202.66" x2="79.53" y2="233.23"/><line class="cls-6" x1="87.35" y1="228.13" x2="83.44" y2="202.66"/><line class="cls-6" x1="91.26" y1="207.75" x2="87.35" y2="228.13"/><line class="cls-6" x1="95.17" y1="131.34" x2="91.26" y2="207.75"/><line class="cls-6" x1="99.08" y1="217.94" x2="95.17" y2="131.34"/><line class="cls-6" x1="102.99" y1="146.62" x2="99.08" y2="217.94"/><line class="cls-6" x1="106.9" y1="131.34" x2="102.99" y2="146.62"/><line class="cls-6" x1="110.82" y1="80.4" x2="106.9" y2="131.34"/><line class="cls-6" x1="114.73" y1="146.62" x2="110.82" y2="80.4"/><line class="cls-6" x1="118.64" y1="182.28" x2="114.73" y2="146.62"/><line class="cls-6" x1="122.55" y1="258.7" x2="118.64" y2="182.28"/><line class="cls-6" x1="126.46" y1="284.17" x2="122.55" y2="258.7"/><line class="cls-6" x1="130.37" y1="223.04" x2="126.46" y2="284.17"/><line class="cls-6" x1="134.28" y1="228.13" x2="130.37" y2="223.04"/><line class="cls-6" x1="138.19" y1="279.07" x2="134.28" y2="228.13"/><line class="cls-6" x1="142.1" y1="95.68" x2="138.19" y2="279.07"/><line class="cls-6" x1="146.01" y1="141.53" x2="142.1" y2="95.68"/><line class="cls-6" x1="149.92" y1="167" x2="146.01" y2="141.53"/><line class="cls-6" x1="153.84" y1="151.72" x2="149.92" y2="167"/><line class="cls-6" x1="157.75" y1="187.38" x2="153.84" y2="151.72"/><line class="cls-6" x1="161.66" y1="223.04" x2="157.75" y2="187.38"/><line class="cls-6" x1="165.57" y1="217.94" x2="161.66" y2="223.04"/><line class="cls-6" x1="169.48" y1="263.79" x2="165.57" y2="217.94"/><line class="cls-6" x1="173.39" y1="268.89" x2="169.48" y2="263.79"/><line class="cls-6" x1="177.3" y1="263.79" x2="173.39" y2="268.89"/><line class="cls-6" x1="181.21" y1="258.7" x2="177.3" y2="263.79"/><line class="cls-6" x1="185.12" y1="330.02" x2="181.21" y2="258.7"/><line class="cls-6" x1="189.03" y1="121.15" x2="185.12" y2="330.02"/><line class="cls-6" x1="192.95" y1="177.19" x2="189.03" y2="121.15"/><line class="cls-6" x1="196.86" y1="233.23" x2="192.95" y2="177.19"/><line class="cls-6" x1="200.77" y1="187.38" x2="196.86" y2="233.23"/><line class="cls-6" x1="204.68" y1="207.75" x2="200.77" y2="187.38"/><line class="cls-6" x1="208.59" y1="248.51" x2="204.68" y2="207.75"/><line class="cls-6" x1="212.5" y1="223.04" x2="208.59" y2="248.51"/><line class="cls-6" x1="216.41" y1="273.98" x2="212.5" y2="223.04"/><line class="cls-6" x1="220.32" y1="279.07" x2="216.41" y2="273.98"/><line class="cls-6" x1="224.23" y1="289.26" x2="220.32" y2="279.07"/><line class="cls-6" x1="228.14" y1="279.07" x2="224.23" y2="289.26"/><line class="cls-6" x1="232.06" y1="324.92" x2="228.14" y2="279.07"/><line class="cls-6" x1="235.97" y1="136.44" x2="232.06" y2="324.92"/><line class="cls-6" x1="239.88" y1="238.32" x2="235.97" y2="136.44"/><line class="cls-6" x1="243.79" y1="223.04" x2="239.88" y2="238.32"/><line class="cls-6" x1="247.7" y1="223.04" x2="243.79" y2="223.04"/><line class="cls-6" x1="251.61" y1="279.07" x2="247.7" y2="223.04"/><line class="cls-6" x1="255.52" y1="268.89" x2="251.61" y2="279.07"/><line class="cls-6" x1="259.43" y1="279.07" x2="255.52" y2="268.89"/><line class="cls-6" x1="263.34" y1="304.54" x2="259.43" y2="279.07"/><line class="cls-6" x1="267.25" y1="340.2" x2="263.34" y2="304.54"/><line class="cls-6" x1="271.17" y1="335.11" x2="267.25" y2="340.2"/><line class="cls-6" x1="275.08" y1="319.83" x2="271.17" y2="335.11"/><line class="cls-6" x1="278.99" y1="340.2" x2="275.08" y2="319.83"/><line class="cls-6" x1="282.9" y1="217.94" x2="278.99" y2="340.2"/><line class="cls-6" x1="286.81" y1="258.7" x2="282.9" y2="217.94"/><line class="cls-6" x1="290.72" y1="284.17" x2="286.81" y2="258.7"/><line class="cls-6" x1="294.63" y1="279.07" x2="290.72" y2="284.17"/><line class="cls-6" x1="298.54" y1="289.26" x2="294.63" y2="279.07"/><line class="cls-6" x1="302.45" y1="330.02" x2="298.54" y2="289.26"/><line class="cls-6" x1="306.36" y1="330.02" x2="302.45" y2="330.02"/><line class="cls-6" x1="310.28" y1="345.3" x2="306.36" y2="330.02"/><line class="cls-6" x1="314.19" y1="335.11" x2="310.28" y2="345.3"/><line class="cls-6" x1="318.1" y1="375.86" x2="314.19" y2="335.11"/><line class="cls-6" x1="322.01" y1="380.96" x2="318.1" y2="375.86"/><line class="cls-6" x1="325.92" y1="370.77" x2="322.01" y2="380.96"/><line class="cls-6" x1="329.83" y1="294.36" x2="325.92" y2="370.77"/><line class="cls-6" x1="333.74" y1="309.64" x2="329.83" y2="294.36"/><line class="cls-6" x1="337.65" y1="299.45" x2="333.74" y2="309.64"/><line class="cls-6" x1="341.56" y1="314.73" x2="337.65" y2="299.45"/><line class="cls-6" x1="345.47" y1="319.83" x2="341.56" y2="314.73"/><line class="cls-6" x1="349.38" y1="360.58" x2="345.47" y2="319.83"/><line class="cls-6" x1="353.3" y1="360.58" x2="349.38" y2="360.58"/><line class="cls-6" x1="357.21" y1="360.58" x2="353.3" y2="360.58"/><line class="cls-6" x1="361.12" y1="365.68" x2="357.21" y2="360.58"/><line class="cls-6" x1="365.03" y1="370.77" x2="361.12" y2="365.68"/><line class="cls-6" x1="368.94" y1="380.96" x2="365.03" y2="370.77"/><line class="cls-6" x1="372.85" y1="396.24" x2="368.94" y2="380.96"/><line class="cls-6" x1="376.76" y1="217.94" x2="372.85" y2="396.24"/><line class="cls-6" x1="380.67" y1="284.17" x2="376.76" y2="217.94"/><line class="cls-6" x1="384.58" y1="284.17" x2="380.67" y2="284.17"/><line class="cls-6" x1="388.49" y1="279.07" x2="384.58" y2="284.17"/><line class="cls-6" x1="392.41" y1="309.64" x2="388.49" y2="279.07"/><line class="cls-6" x1="396.32" y1="314.73" x2="392.41" y2="309.64"/><line class="cls-6" x1="400.23" y1="330.02" x2="396.32" y2="314.73"/><line class="cls-6" x1="404.14" y1="345.3" x2="400.23" y2="330.02"/><line class="cls-6" x1="408.05" y1="335.11" x2="404.14" y2="345.3"/><line class="cls-6" x1="411.96" y1="355.49" x2="408.05" y2="335.11"/><line class="cls-6" x1="415.87" y1="340.2" x2="411.96" y2="355.49"/><line class="cls-6" x1="419.78" y1="380.96" x2="415.87" y2="340.2"/><line class="cls-6" x1="423.69" y1="228.13" x2="419.78" y2="380.96"/><line class="cls-6" x1="427.6" y1="273.98" x2="423.69" y2="228.13"/><line class="cls-6" x1="431.52" y1="268.89" x2="427.6" y2="273.98"/><line class="cls-6" x1="435.43" y1="273.98" x2="431.52" y2="268.89"/><line class="cls-6" x1="439.34" y1="284.17" x2="435.43" y2="273.98"/><line class="cls-6" x1="443.25" y1="294.36" x2="439.34" y2="284.17"/><line class="cls-6" x1="447.16" y1="299.45" x2="443.25" y2="294.36"/><line class="cls-6" x1="451.07" y1="309.64" x2="447.16" y2="299.45"/><line class="cls-6" x1="454.98" y1="330.02" x2="451.07" y2="309.64"/><line class="cls-6" x1="458.89" y1="355.49" x2="454.98" y2="330.02"/><line class="cls-6" x1="462.8" y1="365.68" x2="458.89" y2="355.49"/><line class="cls-6" x1="466.71" y1="375.86" x2="462.8" y2="365.68"/><line class="cls-6" x1="470.63" y1="233.23" x2="466.71" y2="375.86"/><line class="cls-6" x1="474.54" y1="268.89" x2="470.63" y2="233.23"/><line class="cls-6" x1="478.45" y1="268.89" x2="474.54" y2="268.89"/><line class="cls-6" x1="482.36" y1="258.7" x2="478.45" y2="268.89"/><line class="cls-6" x1="486.27" y1="284.17" x2="482.36" y2="258.7"/><line class="cls-6" x1="490.18" y1="309.64" x2="486.27" y2="284.17"/><line class="cls-6" x1="494.09" y1="299.45" x2="490.18" y2="309.64"/><line class="cls-6" x1="498" y1="330.02" x2="494.09" y2="299.45"/><line class="cls-6" x1="501.91" y1="345.3" x2="498" y2="330.02"/><line class="cls-6" x1="505.82" y1="340.2" x2="501.91" y2="345.3"/><line class="cls-6" x1="509.74" y1="365.68" x2="505.82" y2="340.2"/><line class="cls-6" x1="513.65" y1="391.15" x2="509.74" y2="365.68"/><line class="cls-6" x1="517.56" y1="248.51" x2="513.65" y2="391.15"/><line class="cls-6" x1="521.47" y1="279.07" x2="517.56" y2="248.51"/><line class="cls-6" x1="525.38" y1="253.6" x2="521.47" y2="279.07"/><line class="cls-6" x1="529.29" y1="253.6" x2="525.38" y2="253.6"/><line class="cls-6" x1="533.2" y1="279.07" x2="529.29" y2="253.6"/><line class="cls-6" x1="537.11" y1="299.45" x2="533.2" y2="279.07"/><line class="cls-6" x1="541.02" y1="304.54" x2="537.11" y2="299.45"/><line class="cls-6" x1="544.93" y1="304.54" x2="541.02" y2="304.54"/><line class="cls-6" x1="548.84" y1="330.02" x2="544.93" y2="304.54"/><line class="cls-6" x1="552.76" y1="350.39" x2="548.84" y2="330.02"/><line class="cls-6" x1="556.67" y1="375.86" x2="552.76" y2="350.39"/><line class="cls-6" x1="560.58" y1="370.77" x2="556.67" y2="375.86"/><line class="cls-6" x1="564.49" y1="243.41" x2="560.58" y2="370.77"/><line class="cls-6" x1="568.4" y1="299.45" x2="564.49" y2="243.41"/><line class="cls-6" x1="572.31" y1="253.6" x2="568.4" y2="299.45"/><line class="cls-6" x1="576.22" y1="263.79" x2="572.31" y2="253.6"/><line class="cls-6" x1="580.13" y1="284.17" x2="576.22" y2="263.79"/><line class="cls-6" x1="584.04" y1="304.54" x2="580.13" y2="284.17"/><line class="cls-6" x1="587.95" y1="299.45" x2="584.04" y2="304.54"/><line class="cls-6" x1="591.87" y1="324.92" x2="587.95" y2="299.45"/><line class="cls-6" x1="595.78" y1="345.3" x2="591.87" y2="324.92"/><line class="cls-6" x1="599.69" y1="355.49" x2="595.78" y2="345.3"/><line class="cls-6" x1="603.6" y1="370.77" x2="599.69" y2="355.49"/><line class="cls-6" x1="607.51" y1="380.96" x2="603.6" y2="370.77"/><line class="cls-6" x1="611.42" y1="258.7" x2="607.51" y2="380.96"/><line class="cls-6" x1="615.33" y1="289.26" x2="611.42" y2="258.7"/><line class="cls-6" x1="619.24" y1="289.26" x2="615.33" y2="289.26"/><line class="cls-6" x1="623.15" y1="289.26" x2="619.24" y2="289.26"/><line class="cls-6" x1="627.06" y1="304.54" x2="623.15" y2="289.26"/><line class="cls-6" x1="630.98" y1="309.64" x2="627.06" y2="304.54"/><line class="cls-6" x1="634.89" y1="335.11" x2="630.98" y2="309.64"/><line class="cls-6" x1="638.8" y1="340.2" x2="634.89" y2="335.11"/><line class="cls-6" x1="642.71" y1="350.39" x2="638.8" y2="340.2"/><line class="cls-6" x1="646.62" y1="370.77" x2="642.71" y2="350.39"/><line class="cls-6" x1="650.53" y1="401.34" x2="646.62" y2="370.77"/><line class="cls-6" x1="654.44" y1="396.24" x2="650.53" y2="401.34"/><line class="cls-6" x1="658.35" y1="263.79" x2="654.44" y2="396.24"/><line class="cls-6" x1="662.26" y1="304.54" x2="658.35" y2="263.79"/><line class="cls-6" x1="666.17" y1="279.07" x2="662.26" y2="304.54"/><line class="cls-6" x1="670.09" y1="309.64" x2="666.17" y2="279.07"/><line class="cls-6" x1="674" y1="304.54" x2="670.09" y2="309.64"/><line class="cls-6" x1="677.91" y1="309.64" x2="674" y2="304.54"/><line class="cls-6" x1="681.82" y1="314.73" x2="677.91" y2="309.64"/><line class="cls-6" x1="685.73" y1="345.3" x2="681.82" y2="314.73"/><line class="cls-6" x1="689.64" y1="370.77" x2="685.73" y2="345.3"/><line class="cls-6" x1="693.55" y1="375.86" x2="689.64" y2="370.77"/><line class="cls-6" x1="697.46" y1="391.15" x2="693.55" y2="375.86"/><line class="cls-6" x1="701.37" y1="401.34" x2="697.46" y2="391.15"/><line class="cls-6" x1="705.28" y1="273.98" x2="701.37" y2="401.34"/><line class="cls-6" x1="709.2" y1="309.64" x2="705.28" y2="273.98"/><line class="cls-6" x1="713.11" y1="309.64" x2="709.2" y2="309.64"/><line class="cls-6" x1="717.02" y1="299.45" x2="713.11" y2="309.64"/><line class="cls-6" x1="720.93" y1="324.92" x2="717.02" y2="299.45"/><line class="cls-6" x1="724.84" y1="335.11" x2="720.93" y2="324.92"/><line class="cls-6" x1="728.75" y1="324.92" x2="724.84" y2="335.11"/><line class="cls-6" x1="732.66" y1="345.3" x2="728.75" y2="324.92"/><line class="cls-6" x1="736.57" y1="375.86" x2="732.66" y2="345.3"/><line class="cls-6" x1="740.48" y1="375.86" x2="736.57" y2="375.86"/><line class="cls-6" x1="744.39" y1="406.43" x2="740.48" y2="375.86"/><rect class="cls-7" x="327.83" y="291.36" width="4" height="4" rx="2" ry="2"/><rect class="cls-7" x="46.24" y="41.74" width="4" height="4" rx="2" ry="2"/><rect class="cls-7" x="93.17" y="128.34" width="4" height="4" rx="2" ry="2"/><rect class="cls-7" x="140.1" y="92.68" width="4" height="4" rx="2" ry="2"/><rect class="cls-7" x="187.03" y="118.15" width="4" height="4" rx="2" ry="2"/><rect class="cls-7" x="233.97" y="133.44" width="4" height="4" rx="2" ry="2"/><rect class="cls-7" x="280.9" y="214.94" width="4" height="4" rx="2" ry="2"/><rect class="cls-7" x="374.76" y="214.94" width="4" height="4" rx="2" ry="2"/><rect class="cls-7" x="421.69" y="225.13" width="4" height="4" rx="2" ry="2"/><rect class="cls-7" x="468.63" y="230.23" width="4" height="4" rx="2" ry="2"/><rect class="cls-7" x="515.56" y="245.51" width="4" height="4" rx="2" ry="2"/><rect class="cls-7" x="562.49" y="240.41" width="4" height="4" rx="2" ry="2"/><rect class="cls-7" x="609.42" y="255.7" width="4" height="4" rx="2" ry="2"/><rect class="cls-7" x="656.35" y="260.79" width="4" height="4" rx="2" ry="2"/><rect class="cls-7" x="703.31" y="270.98" width="4" height="4" rx="2" ry="2"/><text class="cls-8" transform="translate(716.99 465.86)">2018</text><text class="cls-8" transform="translate(671.85 465.86)">2017</text><text class="cls-8" transform="translate(622.13 465.86)">2016</text><text class="cls-8" transform="translate(575.68 465.86)">2015</text><text class="cls-8" transform="translate(528.32 465.86)">2014</text><text class="cls-8" transform="translate(481.7 465.86)">2013</text><text class="cls-8" transform="translate(434.67 465.86)">2012</text><text class="cls-8" transform="translate(387.26 465.86)">2011</text><text class="cls-8" transform="translate(340.78 465.86)">2010</text><text class="cls-8" transform="translate(293.69 465.86)">2009</text><text class="cls-8" transform="translate(246.95 465.86) scale(0.97 1)">2008</text><text class="cls-8" transform="translate(199.44 465.86)">2007</text><text class="cls-8" transform="translate(57.95 465.86)">2004</text><text class="cls-8" transform="translate(105.43 465.86)">2005</text><text class="cls-8" transform="translate(153.43 465.86)">2006</text><g class="cls-3"><line class="cls-4" x1="15.09" y1="46.26" x2="15.09" y2="187.38"/><polygon class="cls-9" points="12.31 48.37 15.09 47.19 17.87 48.37 15.09 41.79 12.31 48.37"/></g><line class="cls-10" x1="46.28" y1="452.28" x2="46.28" y2="44.74"/><text class="cls-5" transform="translate(19.17 303.2) rotate(-90)">Google Search Ind<tspan class="cls-11" x="96.84" y="0">e</tspan><tspan x="102.89" y="0">x</tspan></text><g class="cls-3"><line class="cls-4" x1="15.09" y1="442.56" x2="15.09" y2="311.59"/><polygon class="cls-9" points="17.87 440.46 15.09 441.64 12.31 440.46 15.09 447.04 17.87 440.46"/></g><text class="cls-12" transform="translate(10.82 24.25)">Monthly Google Search Interest for Dieting (January 2004 - N<tspan class="cls-13" x="382.04" y="0">ov</tspan><tspan x="397.01" y="0">ember 2018)</tspan></text><rect class="cls-14" x="268.54" y="113.41" width="84.01" height="13.49"/><text class="cls-15" transform="translate(269.54 125.28)">Each January search interest <tspan x="0" y="16.8">for dieting peaks </tspan></text><line class="cls-4" x1="239.97" y1="133.44" x2="265.34" y2="120.15"/></svg>