<svg id="Layer_1" data-name="Layer 1" xmlns="http://www.w3.org/2000/svg" viewBox="0 0 740.95 232.09"><defs><style>.cls-1{fill:#f2c25d;}.cls-2{font-size:14px;fill:#231f20;}.cls-10,.cls-2,.cls-7{font-family:Lato-Bold, Lato;font-weight:700;}.cls-3{letter-spacing:-0.01em;}.cls-10,.cls-4,.cls-7{fill:#58595b;}.cls-4{opacity:0;}.cls-12,.cls-5{fill:none;}.cls-5{stroke:#808285;stroke-width:0.75px;}.cls-12,.cls-5,.cls-6{stroke-miterlimit:10;}.cls-6{fill:#bcbec0;stroke:#939598;stroke-width:0.25px;}.cls-7{font-size:9px;}.cls-8{opacity:0.75;}.cls-9{fill:#808285;}.cls-10{font-size:8.07px;}.cls-11{letter-spacing:-0.03em;}.cls-12{stroke:#4c6eb5;stroke-linecap:round;stroke-width:2px;}</style></defs><title>southbeach</title><rect class="cls-1" x="63.5" y="41.9" width="139.24" height="11.75"/><text class="cls-2" transform="translate(64.5 53.64)">The South Beach Diet</text><rect class="cls-1" x="583.77" y="43.01" width="90.42" height="13.49"/><text class="cls-2" transform="translate(584.89 54.53)">The <tspan class="cls-3" x="26.47" y="0">Z</tspan><tspan x="34.91" y="0">one Diet</tspan></text><rect class="cls-4" x="511.57" y="60.58" width="222.62" height="162.67"/><line class="cls-5" x1="528.28" y1="209.06" x2="734.67" y2="209.06"/><line class="cls-6" x1="528.28" y1="179.88" x2="734.67" y2="179.88"/><line class="cls-6" x1="528.28" y1="150.71" x2="734.67" y2="150.71"/><line class="cls-6" x1="528.28" y1="121.53" x2="734.67" y2="121.53"/><line class="cls-6" x1="528.28" y1="92.35" x2="734.67" y2="92.35"/><line class="cls-6" x1="528.28" y1="63.18" x2="734.67" y2="63.18"/><text class="cls-7" transform="translate(516.61 212.4)">0</text><text class="cls-7" transform="translate(514 183.22)">20</text><text class="cls-7" transform="translate(514 154.05)">40</text><text class="cls-7" transform="translate(514 124.87)">60</text><text class="cls-7" transform="translate(514 95.69)">80</text><text class="cls-7" transform="translate(511.39 66.52)">100</text><text class="cls-7" transform="translate(539.79 223.25)">2005</text><text class="cls-7" transform="translate(568.27 223.25)">2007</text><text class="cls-7" transform="translate(596.74 223.25)">2009</text><text class="cls-7" transform="translate(625.22 223.25)">2011</text><text class="cls-7" transform="translate(653.69 223.25)">2013</text><text class="cls-7" transform="translate(682.17 223.25)">2015</text><text class="cls-7" transform="translate(710.64 223.25)">2017</text><g class="cls-8"><line class="cls-5" x1="10.06" y1="63" x2="10.06" y2="96.52"/><polygon class="cls-9" points="7.28 65.11 10.06 63.93 12.84 65.11 10.06 58.52 7.28 65.11"/></g><text class="cls-10" transform="translate(12.8 168.23) rotate(-90) scale(0.91 1)">Google Search Ind<tspan class="cls-11" x="65.11" y="0">e</tspan><tspan x="69.18" y="0">x</tspan></text><g class="cls-8"><line class="cls-5" x1="10.06" y1="206.33" x2="10.06" y2="172.81"/><polygon class="cls-9" points="12.84 204.22 10.06 205.4 7.28 204.22 10.06 210.81 12.84 204.22"/></g><text class="cls-2" transform="translate(5.85 20.28)">Google Search Interest (2004 - 2018)</text><rect class="cls-4" x="21.44" y="59.58" width="222.62" height="162.67"/><line class="cls-5" x1="38.25" y1="208.08" x2="244.63" y2="208.08"/><text class="cls-7" transform="translate(26.41 211.71)">0</text><text class="cls-7" transform="translate(23.8 182.53)">20</text><text class="cls-7" transform="translate(23.8 153.36)">40</text><text class="cls-7" transform="translate(23.8 124.18)">60</text><text class="cls-7" transform="translate(23.8 95)">80</text><text class="cls-7" transform="translate(21.19 65.83)">100</text><line class="cls-6" x1="38.25" y1="178.91" x2="244.63" y2="178.91"/><line class="cls-6" x1="38.25" y1="149.73" x2="244.63" y2="149.73"/><line class="cls-6" x1="38.25" y1="120.55" x2="244.63" y2="120.55"/><line class="cls-6" x1="38.25" y1="91.38" x2="244.63" y2="91.38"/><line class="cls-6" x1="38.25" y1="62.2" x2="244.63" y2="62.2"/><text class="cls-7" transform="translate(49.59 222.25)">2005</text><text class="cls-7" transform="translate(78.07 222.25)">2007</text><text class="cls-7" transform="translate(106.54 222.25)">2009</text><text class="cls-7" transform="translate(135.01 222.25)">2011</text><text class="cls-7" transform="translate(163.49 222.25)">2013</text><text class="cls-7" transform="translate(191.96 222.25)">2015</text><text class="cls-7" transform="translate(220.44 222.25)">2017</text><line class="cls-12" x1="42.57" y1="122.07" x2="41.44" y2="62.65"/><line class="cls-12" x1="43.7" y1="130.76" x2="42.57" y2="122.07"/><line class="cls-12" x1="44.84" y1="129.32" x2="43.7" y2="130.76"/><line class="cls-12" x1="45.97" y1="116.27" x2="44.84" y2="129.32"/><line class="cls-12" x1="47.1" y1="133.66" x2="45.97" y2="116.27"/><line class="cls-12" x1="48.23" y1="149.6" x2="47.1" y2="133.66"/><line class="cls-12" x1="49.36" y1="162.65" x2="48.23" y2="149.6"/><line class="cls-12" x1="50.49" y1="164.1" x2="49.36" y2="162.65"/><line class="cls-12" x1="51.63" y1="171.34" x2="50.49" y2="164.1"/><line class="cls-12" x1="52.76" y1="177.14" x2="51.63" y2="171.34"/><line class="cls-12" x1="53.89" y1="184.38" x2="52.76" y2="177.14"/><line class="cls-12" x1="55.02" y1="164.1" x2="53.89" y2="184.38"/><line class="cls-12" x1="56.15" y1="181.49" x2="55.02" y2="164.1"/><line class="cls-12" x1="57.29" y1="175.69" x2="56.15" y2="181.49"/><line class="cls-12" x1="58.42" y1="174.24" x2="57.29" y2="175.69"/><line class="cls-12" x1="59.55" y1="172.79" x2="58.42" y2="174.24"/><line class="cls-12" x1="60.68" y1="169.89" x2="59.55" y2="172.79"/><line class="cls-12" x1="61.81" y1="169.89" x2="60.68" y2="169.89"/><line class="cls-12" x1="62.95" y1="174.24" x2="61.81" y2="169.89"/><line class="cls-12" x1="64.08" y1="182.94" x2="62.95" y2="174.24"/><line class="cls-12" x1="65.21" y1="185.83" x2="64.08" y2="182.94"/><line class="cls-12" x1="66.34" y1="187.28" x2="65.21" y2="185.83"/><line class="cls-12" x1="67.47" y1="193.08" x2="66.34" y2="187.28"/><line class="cls-12" x1="68.6" y1="171.34" x2="67.47" y2="193.08"/><line class="cls-12" x1="69.74" y1="185.83" x2="68.6" y2="171.34"/><line class="cls-12" x1="70.87" y1="185.83" x2="69.74" y2="185.83"/><line class="cls-12" x1="72" y1="187.28" x2="70.87" y2="185.83"/><line class="cls-12" x1="73.13" y1="188.73" x2="72" y2="187.28"/><line class="cls-12" x1="74.26" y1="187.28" x2="73.13" y2="188.73"/><line class="cls-12" x1="75.4" y1="188.73" x2="74.26" y2="187.28"/><line class="cls-12" x1="76.53" y1="190.18" x2="75.4" y2="188.73"/><line class="cls-12" x1="77.66" y1="191.63" x2="76.53" y2="190.18"/><line class="cls-12" x1="78.79" y1="191.63" x2="77.66" y2="191.63"/><line class="cls-12" x1="79.92" y1="194.53" x2="78.79" y2="191.63"/><line class="cls-12" x1="81.06" y1="195.98" x2="79.92" y2="194.53"/><line class="cls-12" x1="82.19" y1="180.04" x2="81.06" y2="195.98"/><line class="cls-12" x1="83.32" y1="188.73" x2="82.19" y2="180.04"/><line class="cls-12" x1="84.45" y1="188.73" x2="83.32" y2="188.73"/><line class="cls-12" x1="85.58" y1="188.73" x2="84.45" y2="188.73"/><line class="cls-12" x1="86.71" y1="191.63" x2="85.58" y2="188.73"/><line class="cls-12" x1="87.85" y1="193.08" x2="86.71" y2="191.63"/><line class="cls-12" x1="88.98" y1="193.08" x2="87.85" y2="193.08"/><line class="cls-12" x1="90.11" y1="194.53" x2="88.98" y2="193.08"/><line class="cls-12" x1="91.24" y1="194.53" x2="90.11" y2="194.53"/><line class="cls-12" x1="92.37" y1="195.98" x2="91.24" y2="194.53"/><line class="cls-12" x1="93.51" y1="197.43" x2="92.37" y2="195.98"/><line class="cls-12" x1="94.64" y1="198.88" x2="93.51" y2="197.43"/><line class="cls-12" x1="95.77" y1="187.28" x2="94.64" y2="198.88"/><line class="cls-12" x1="96.9" y1="194.53" x2="95.77" y2="187.28"/><line class="cls-12" x1="98.03" y1="194.53" x2="96.9" y2="194.53"/><line class="cls-12" x1="99.16" y1="194.53" x2="98.03" y2="194.53"/><line class="cls-12" x1="100.3" y1="194.53" x2="99.16" y2="194.53"/><line class="cls-12" x1="101.43" y1="194.53" x2="100.3" y2="194.53"/><line class="cls-12" x1="102.56" y1="193.08" x2="101.43" y2="194.53"/><line class="cls-12" x1="103.69" y1="195.98" x2="102.56" y2="193.08"/><line class="cls-12" x1="104.82" y1="195.98" x2="103.69" y2="195.98"/><line class="cls-12" x1="105.96" y1="197.43" x2="104.82" y2="195.98"/><line class="cls-12" x1="107.09" y1="200.33" x2="105.96" y2="197.43"/><line class="cls-12" x1="108.22" y1="200.33" x2="107.09" y2="200.33"/><line class="cls-12" x1="109.35" y1="191.63" x2="108.22" y2="200.33"/><line class="cls-12" x1="110.48" y1="195.98" x2="109.35" y2="191.63"/><line class="cls-12" x1="111.62" y1="195.98" x2="110.48" y2="195.98"/><line class="cls-12" x1="112.75" y1="195.98" x2="111.62" y2="195.98"/><line class="cls-12" x1="113.88" y1="197.43" x2="112.75" y2="195.98"/><line class="cls-12" x1="115.01" y1="195.98" x2="113.88" y2="197.43"/><line class="cls-12" x1="116.14" y1="197.43" x2="115.01" y2="195.98"/><line class="cls-12" x1="117.27" y1="198.88" x2="116.14" y2="197.43"/><line class="cls-12" x1="118.41" y1="198.88" x2="117.27" y2="198.88"/><line class="cls-12" x1="119.54" y1="200.33" x2="118.41" y2="198.88"/><line class="cls-12" x1="120.67" y1="201.77" x2="119.54" y2="200.33"/><line class="cls-12" x1="121.8" y1="201.77" x2="120.67" y2="201.77"/><line class="cls-12" x1="122.93" y1="193.08" x2="121.8" y2="201.77"/><line class="cls-12" x1="124.07" y1="197.43" x2="122.93" y2="193.08"/><line class="cls-12" x1="125.2" y1="197.43" x2="124.07" y2="197.43"/><line class="cls-12" x1="126.33" y1="197.43" x2="125.2" y2="197.43"/><line class="cls-12" x1="127.46" y1="198.88" x2="126.33" y2="197.43"/><line class="cls-12" x1="128.59" y1="198.88" x2="127.46" y2="198.88"/><line class="cls-12" x1="129.73" y1="200.33" x2="128.59" y2="198.88"/><line class="cls-12" x1="130.86" y1="200.33" x2="129.73" y2="200.33"/><line class="cls-12" x1="131.99" y1="201.77" x2="130.86" y2="200.33"/><line class="cls-12" x1="133.12" y1="201.77" x2="131.99" y2="201.77"/><line class="cls-12" x1="134.25" y1="203.22" x2="133.12" y2="201.77"/><line class="cls-12" x1="135.38" y1="203.22" x2="134.25" y2="203.22"/><line class="cls-12" x1="136.52" y1="195.98" x2="135.38" y2="203.22"/><line class="cls-12" x1="137.65" y1="198.88" x2="136.52" y2="195.98"/><line class="cls-12" x1="138.78" y1="198.88" x2="137.65" y2="198.88"/><line class="cls-12" x1="139.91" y1="198.88" x2="138.78" y2="198.88"/><line class="cls-12" x1="141.04" y1="200.33" x2="139.91" y2="198.88"/><line class="cls-12" x1="142.18" y1="200.33" x2="141.04" y2="200.33"/><line class="cls-12" x1="143.31" y1="200.33" x2="142.18" y2="200.33"/><line class="cls-12" x1="144.44" y1="201.77" x2="143.31" y2="200.33"/><line class="cls-12" x1="145.57" y1="201.77" x2="144.44" y2="201.77"/><line class="cls-12" x1="146.7" y1="201.77" x2="145.57" y2="201.77"/><line class="cls-12" x1="147.84" y1="203.22" x2="146.7" y2="201.77"/><line class="cls-12" x1="148.97" y1="203.22" x2="147.84" y2="203.22"/><line class="cls-12" x1="150.1" y1="198.88" x2="148.97" y2="203.22"/><line class="cls-12" x1="151.23" y1="200.33" x2="150.1" y2="198.88"/><line class="cls-12" x1="152.36" y1="201.77" x2="151.23" y2="200.33"/><line class="cls-12" x1="153.49" y1="201.77" x2="152.36" y2="201.77"/><line class="cls-12" x1="154.63" y1="201.77" x2="153.49" y2="201.77"/><line class="cls-12" x1="155.76" y1="201.77" x2="154.63" y2="201.77"/><line class="cls-12" x1="156.89" y1="201.77" x2="155.76" y2="201.77"/><line class="cls-12" x1="158.02" y1="201.77" x2="156.89" y2="201.77"/><line class="cls-12" x1="159.15" y1="203.22" x2="158.02" y2="201.77"/><line class="cls-12" x1="160.29" y1="203.22" x2="159.15" y2="203.22"/><line class="cls-12" x1="161.42" y1="204.67" x2="160.29" y2="203.22"/><line class="cls-12" x1="162.55" y1="204.67" x2="161.42" y2="204.67"/><line class="cls-12" x1="163.68" y1="201.77" x2="162.55" y2="204.67"/><line class="cls-12" x1="164.81" y1="201.77" x2="163.68" y2="201.77"/><line class="cls-12" x1="165.95" y1="203.22" x2="164.81" y2="201.77"/><line class="cls-12" x1="167.08" y1="203.22" x2="165.95" y2="203.22"/><line class="cls-12" x1="168.21" y1="203.22" x2="167.08" y2="203.22"/><line class="cls-12" x1="169.34" y1="203.22" x2="168.21" y2="203.22"/><line class="cls-12" x1="170.47" y1="203.22" x2="169.34" y2="203.22"/><line class="cls-12" x1="171.6" y1="204.67" x2="170.47" y2="203.22"/><line class="cls-12" x1="172.74" y1="204.67" x2="171.6" y2="204.67"/><line class="cls-12" x1="173.87" y1="204.67" x2="172.74" y2="204.67"/><line class="cls-12" x1="175" y1="204.67" x2="173.87" y2="204.67"/><line class="cls-12" x1="176.13" y1="204.67" x2="175" y2="204.67"/><line class="cls-12" x1="177.26" y1="203.22" x2="176.13" y2="204.67"/><line class="cls-12" x1="178.4" y1="203.22" x2="177.26" y2="203.22"/><line class="cls-12" x1="179.53" y1="204.67" x2="178.4" y2="203.22"/><line class="cls-12" x1="180.66" y1="204.67" x2="179.53" y2="204.67"/><line class="cls-12" x1="181.79" y1="204.67" x2="180.66" y2="204.67"/><line class="cls-12" x1="182.92" y1="204.67" x2="181.79" y2="204.67"/><line class="cls-12" x1="184.06" y1="204.67" x2="182.92" y2="204.67"/><line class="cls-12" x1="185.19" y1="204.67" x2="184.06" y2="204.67"/><line class="cls-12" x1="186.32" y1="206.12" x2="185.19" y2="204.67"/><line class="cls-12" x1="187.45" y1="206.12" x2="186.32" y2="206.12"/><line class="cls-12" x1="188.58" y1="206.12" x2="187.45" y2="206.12"/><line class="cls-12" x1="189.71" y1="206.12" x2="188.58" y2="206.12"/><line class="cls-12" x1="190.85" y1="204.67" x2="189.71" y2="206.12"/><line class="cls-12" x1="191.98" y1="204.67" x2="190.85" y2="204.67"/><line class="cls-12" x1="193.11" y1="204.67" x2="191.98" y2="204.67"/><line class="cls-12" x1="194.24" y1="204.67" x2="193.11" y2="204.67"/><line class="cls-12" x1="195.37" y1="206.12" x2="194.24" y2="204.67"/><line class="cls-12" x1="196.51" y1="206.12" x2="195.37" y2="206.12"/><line class="cls-12" x1="197.64" y1="206.12" x2="196.51" y2="206.12"/><line class="cls-12" x1="198.77" y1="206.12" x2="197.64" y2="206.12"/><line class="cls-12" x1="199.9" y1="206.12" x2="198.77" y2="206.12"/><line class="cls-12" x1="201.03" y1="206.12" x2="199.9" y2="206.12"/><line class="cls-12" x1="202.17" y1="206.12" x2="201.03" y2="206.12"/><line class="cls-12" x1="203.3" y1="206.12" x2="202.17" y2="206.12"/><line class="cls-12" x1="204.43" y1="206.12" x2="203.3" y2="206.12"/><line class="cls-12" x1="205.56" y1="206.12" x2="204.43" y2="206.12"/><line class="cls-12" x1="206.69" y1="206.12" x2="205.56" y2="206.12"/><line class="cls-12" x1="207.82" y1="206.12" x2="206.69" y2="206.12"/><line class="cls-12" x1="208.96" y1="206.12" x2="207.82" y2="206.12"/><line class="cls-12" x1="210.09" y1="206.12" x2="208.96" y2="206.12"/><line class="cls-12" x1="211.22" y1="206.12" x2="210.09" y2="206.12"/><line class="cls-12" x1="212.35" y1="206.12" x2="211.22" y2="206.12"/><line class="cls-12" x1="213.48" y1="206.12" x2="212.35" y2="206.12"/><line class="cls-12" x1="214.62" y1="206.12" x2="213.48" y2="206.12"/><line class="cls-12" x1="215.75" y1="206.12" x2="214.62" y2="206.12"/><line class="cls-12" x1="216.88" y1="206.12" x2="215.75" y2="206.12"/><line class="cls-12" x1="218.01" y1="204.67" x2="216.88" y2="206.12"/><line class="cls-12" x1="219.14" y1="204.67" x2="218.01" y2="204.67"/><line class="cls-12" x1="220.28" y1="204.67" x2="219.14" y2="204.67"/><line class="cls-12" x1="221.41" y1="204.67" x2="220.28" y2="204.67"/><line class="cls-12" x1="222.54" y1="206.12" x2="221.41" y2="204.67"/><line class="cls-12" x1="223.67" y1="206.12" x2="222.54" y2="206.12"/><line class="cls-12" x1="224.8" y1="206.12" x2="223.67" y2="206.12"/><line class="cls-12" x1="225.93" y1="206.12" x2="224.8" y2="206.12"/><line class="cls-12" x1="227.07" y1="206.12" x2="225.93" y2="206.12"/><line class="cls-12" x1="228.2" y1="206.12" x2="227.07" y2="206.12"/><line class="cls-12" x1="229.33" y1="206.12" x2="228.2" y2="206.12"/><line class="cls-12" x1="230.46" y1="206.12" x2="229.33" y2="206.12"/><line class="cls-12" x1="231.59" y1="201.77" x2="230.46" y2="206.12"/><line class="cls-12" x1="232.73" y1="203.22" x2="231.59" y2="201.77"/><line class="cls-12" x1="233.86" y1="204.67" x2="232.73" y2="203.22"/><line class="cls-12" x1="234.99" y1="204.67" x2="233.86" y2="204.67"/><line class="cls-12" x1="236.12" y1="204.67" x2="234.99" y2="204.67"/><line class="cls-12" x1="237.25" y1="206.12" x2="236.12" y2="204.67"/><line class="cls-12" x1="238.39" y1="206.12" x2="237.25" y2="206.12"/><line class="cls-12" x1="239.52" y1="206.12" x2="238.39" y2="206.12"/><line class="cls-12" x1="240.65" y1="206.12" x2="239.52" y2="206.12"/><line class="cls-12" x1="241.78" y1="206.12" x2="240.65" y2="206.12"/><line class="cls-12" x1="242.91" y1="206.12" x2="241.78" y2="206.12"/><line class="cls-12" x1="244.04" y1="206.12" x2="242.91" y2="206.12"/><rect class="cls-1" x="341.25" y="42.91" width="74.83" height="11.75"/><text class="cls-2" transform="translate(342.09 53.7) scale(1.02 1)">Atkins Diet</text><rect class="cls-4" x="267.04" y="59.58" width="222.62" height="162.67"/><line class="cls-5" x1="283.27" y1="208.08" x2="489.66" y2="208.08"/><line class="cls-6" x1="283.27" y1="178.91" x2="489.66" y2="178.91"/><line class="cls-6" x1="283.27" y1="149.73" x2="489.66" y2="149.73"/><line class="cls-6" x1="283.27" y1="120.55" x2="489.66" y2="120.55"/><line class="cls-6" x1="283.27" y1="91.38" x2="489.66" y2="91.38"/><line class="cls-6" x1="283.27" y1="62.2" x2="489.66" y2="62.2"/><text class="cls-7" transform="translate(271.3 211.67)">0</text><text class="cls-7" transform="translate(268.69 182.49)">20</text><text class="cls-7" transform="translate(268.69 153.32)">40</text><text class="cls-7" transform="translate(268.69 124.14)">60</text><text class="cls-7" transform="translate(268.69 94.96)">80</text><text class="cls-7" transform="translate(266.08 65.79)">100</text><text class="cls-7" transform="translate(294.48 222.25)">2005</text><text class="cls-7" transform="translate(322.95 222.25)">2007</text><text class="cls-7" transform="translate(351.42 222.25)">2009</text><text class="cls-7" transform="translate(379.9 222.25)">2011</text><text class="cls-7" transform="translate(408.37 222.25)">2013</text><text class="cls-7" transform="translate(436.85 222.25)">2015</text><text class="cls-7" transform="translate(465.32 222.25)">2017</text><line class="cls-12" x1="285.89" y1="121.25" x2="284.74" y2="62.69"/><line class="cls-12" x1="287.04" y1="146.13" x2="285.89" y2="121.25"/><line class="cls-12" x1="288.19" y1="154.92" x2="287.04" y2="146.13"/><line class="cls-12" x1="289.33" y1="157.85" x2="288.19" y2="154.92"/><line class="cls-12" x1="290.48" y1="168.09" x2="289.33" y2="157.85"/><line class="cls-12" x1="291.63" y1="179.81" x2="290.48" y2="168.09"/><line class="cls-12" x1="292.78" y1="182.73" x2="291.63" y2="179.81"/><line class="cls-12" x1="293.93" y1="184.2" x2="292.78" y2="182.73"/><line class="cls-12" x1="295.08" y1="185.66" x2="293.93" y2="184.2"/><line class="cls-12" x1="296.22" y1="188.59" x2="295.08" y2="185.66"/><line class="cls-12" x1="297.37" y1="192.98" x2="296.22" y2="188.59"/><line class="cls-12" x1="298.52" y1="187.13" x2="297.37" y2="192.98"/><line class="cls-12" x1="299.67" y1="190.05" x2="298.52" y2="187.13"/><line class="cls-12" x1="300.82" y1="188.59" x2="299.67" y2="190.05"/><line class="cls-12" x1="301.96" y1="191.52" x2="300.82" y2="188.59"/><line class="cls-12" x1="303.11" y1="192.98" x2="301.96" y2="191.52"/><line class="cls-12" x1="304.26" y1="195.91" x2="303.11" y2="192.98"/><line class="cls-12" x1="305.41" y1="195.91" x2="304.26" y2="195.91"/><line class="cls-12" x1="306.56" y1="197.37" x2="305.41" y2="195.91"/><line class="cls-12" x1="307.71" y1="198.84" x2="306.56" y2="197.37"/><line class="cls-12" x1="308.85" y1="197.37" x2="307.71" y2="198.84"/><line class="cls-12" x1="310" y1="198.84" x2="308.85" y2="197.37"/><line class="cls-12" x1="311.15" y1="198.84" x2="310" y2="198.84"/><line class="cls-12" x1="312.3" y1="194.45" x2="311.15" y2="198.84"/><line class="cls-12" x1="313.45" y1="197.37" x2="312.3" y2="194.45"/><line class="cls-12" x1="314.59" y1="195.91" x2="313.45" y2="197.37"/><line class="cls-12" x1="315.74" y1="195.91" x2="314.59" y2="195.91"/><line class="cls-12" x1="316.89" y1="197.37" x2="315.74" y2="195.91"/><line class="cls-12" x1="318.04" y1="198.84" x2="316.89" y2="197.37"/><line class="cls-12" x1="319.19" y1="198.84" x2="318.04" y2="198.84"/><line class="cls-12" x1="320.33" y1="198.84" x2="319.19" y2="198.84"/><line class="cls-12" x1="321.48" y1="198.84" x2="320.33" y2="198.84"/><line class="cls-12" x1="322.63" y1="198.84" x2="321.48" y2="198.84"/><line class="cls-12" x1="323.78" y1="200.3" x2="322.63" y2="198.84"/><line class="cls-12" x1="324.93" y1="201.77" x2="323.78" y2="200.3"/><line class="cls-12" x1="326.08" y1="194.45" x2="324.93" y2="201.77"/><line class="cls-12" x1="327.22" y1="197.37" x2="326.08" y2="194.45"/><line class="cls-12" x1="328.37" y1="187.13" x2="327.22" y2="197.37"/><line class="cls-12" x1="329.52" y1="192.98" x2="328.37" y2="187.13"/><line class="cls-12" x1="330.67" y1="197.37" x2="329.52" y2="192.98"/><line class="cls-12" x1="331.82" y1="197.37" x2="330.67" y2="197.37"/><line class="cls-12" x1="332.96" y1="197.37" x2="331.82" y2="197.37"/><line class="cls-12" x1="334.11" y1="198.84" x2="332.96" y2="197.37"/><line class="cls-12" x1="335.26" y1="198.84" x2="334.11" y2="198.84"/><line class="cls-12" x1="336.41" y1="197.37" x2="335.26" y2="198.84"/><line class="cls-12" x1="337.56" y1="200.3" x2="336.41" y2="197.37"/><line class="cls-12" x1="338.71" y1="201.77" x2="337.56" y2="200.3"/><line class="cls-12" x1="339.85" y1="195.91" x2="338.71" y2="201.77"/><line class="cls-12" x1="341" y1="200.3" x2="339.85" y2="195.91"/><line class="cls-12" x1="342.15" y1="198.84" x2="341" y2="200.3"/><line class="cls-12" x1="343.3" y1="198.84" x2="342.15" y2="198.84"/><line class="cls-12" x1="344.45" y1="200.3" x2="343.3" y2="198.84"/><line class="cls-12" x1="345.59" y1="198.84" x2="344.45" y2="200.3"/><line class="cls-12" x1="346.74" y1="194.45" x2="345.59" y2="198.84"/><line class="cls-12" x1="347.89" y1="197.37" x2="346.74" y2="194.45"/><line class="cls-12" x1="349.04" y1="198.84" x2="347.89" y2="197.37"/><line class="cls-12" x1="350.19" y1="200.3" x2="349.04" y2="198.84"/><line class="cls-12" x1="351.34" y1="200.3" x2="350.19" y2="200.3"/><line class="cls-12" x1="352.48" y1="200.3" x2="351.34" y2="200.3"/><line class="cls-12" x1="353.63" y1="194.45" x2="352.48" y2="200.3"/><line class="cls-12" x1="354.78" y1="197.37" x2="353.63" y2="194.45"/><line class="cls-12" x1="355.93" y1="197.37" x2="354.78" y2="197.37"/><line class="cls-12" x1="357.08" y1="197.37" x2="355.93" y2="197.37"/><line class="cls-12" x1="358.22" y1="197.37" x2="357.08" y2="197.37"/><line class="cls-12" x1="359.37" y1="197.37" x2="358.22" y2="197.37"/><line class="cls-12" x1="360.52" y1="198.84" x2="359.37" y2="197.37"/><line class="cls-12" x1="361.67" y1="198.84" x2="360.52" y2="198.84"/><line class="cls-12" x1="362.82" y1="198.84" x2="361.67" y2="198.84"/><line class="cls-12" x1="363.97" y1="200.3" x2="362.82" y2="198.84"/><line class="cls-12" x1="365.11" y1="200.3" x2="363.97" y2="200.3"/><line class="cls-12" x1="366.26" y1="201.77" x2="365.11" y2="200.3"/><line class="cls-12" x1="367.41" y1="191.52" x2="366.26" y2="201.77"/><line class="cls-12" x1="368.56" y1="195.91" x2="367.41" y2="191.52"/><line class="cls-12" x1="369.71" y1="194.45" x2="368.56" y2="195.91"/><line class="cls-12" x1="370.85" y1="195.91" x2="369.71" y2="194.45"/><line class="cls-12" x1="372" y1="197.37" x2="370.85" y2="195.91"/><line class="cls-12" x1="373.15" y1="198.84" x2="372" y2="197.37"/><line class="cls-12" x1="374.3" y1="200.3" x2="373.15" y2="198.84"/><line class="cls-12" x1="375.45" y1="198.84" x2="374.3" y2="200.3"/><line class="cls-12" x1="376.59" y1="198.84" x2="375.45" y2="198.84"/><line class="cls-12" x1="377.74" y1="200.3" x2="376.59" y2="198.84"/><line class="cls-12" x1="378.89" y1="201.77" x2="377.74" y2="200.3"/><line class="cls-12" x1="380.04" y1="201.77" x2="378.89" y2="201.77"/><line class="cls-12" x1="381.19" y1="188.59" x2="380.04" y2="201.77"/><line class="cls-12" x1="382.34" y1="191.52" x2="381.19" y2="188.59"/><line class="cls-12" x1="383.48" y1="192.98" x2="382.34" y2="191.52"/><line class="cls-12" x1="384.63" y1="194.45" x2="383.48" y2="192.98"/><line class="cls-12" x1="385.78" y1="195.91" x2="384.63" y2="194.45"/><line class="cls-12" x1="386.93" y1="197.37" x2="385.78" y2="195.91"/><line class="cls-12" x1="388.08" y1="198.84" x2="386.93" y2="197.37"/><line class="cls-12" x1="389.22" y1="200.3" x2="388.08" y2="198.84"/><line class="cls-12" x1="390.37" y1="198.84" x2="389.22" y2="200.3"/><line class="cls-12" x1="391.52" y1="200.3" x2="390.37" y2="198.84"/><line class="cls-12" x1="392.67" y1="201.77" x2="391.52" y2="200.3"/><line class="cls-12" x1="393.82" y1="201.77" x2="392.67" y2="201.77"/><line class="cls-12" x1="394.97" y1="191.52" x2="393.82" y2="201.77"/><line class="cls-12" x1="396.11" y1="195.91" x2="394.97" y2="191.52"/><line class="cls-12" x1="397.26" y1="194.45" x2="396.11" y2="195.91"/><line class="cls-12" x1="398.41" y1="194.45" x2="397.26" y2="194.45"/><line class="cls-12" x1="399.56" y1="195.91" x2="398.41" y2="194.45"/><line class="cls-12" x1="400.71" y1="197.37" x2="399.56" y2="195.91"/><line class="cls-12" x1="401.85" y1="197.37" x2="400.71" y2="197.37"/><line class="cls-12" x1="403" y1="198.84" x2="401.85" y2="197.37"/><line class="cls-12" x1="404.15" y1="198.84" x2="403" y2="198.84"/><line class="cls-12" x1="405.3" y1="200.3" x2="404.15" y2="198.84"/><line class="cls-12" x1="406.45" y1="200.3" x2="405.3" y2="200.3"/><line class="cls-12" x1="407.6" y1="201.77" x2="406.45" y2="200.3"/><line class="cls-12" x1="408.74" y1="191.52" x2="407.6" y2="201.77"/><line class="cls-12" x1="409.89" y1="194.45" x2="408.74" y2="191.52"/><line class="cls-12" x1="411.04" y1="195.91" x2="409.89" y2="194.45"/><line class="cls-12" x1="412.19" y1="195.91" x2="411.04" y2="195.91"/><line class="cls-12" x1="413.34" y1="197.37" x2="412.19" y2="195.91"/><line class="cls-12" x1="414.48" y1="198.84" x2="413.34" y2="197.37"/><line class="cls-12" x1="415.63" y1="200.3" x2="414.48" y2="198.84"/><line class="cls-12" x1="416.78" y1="200.3" x2="415.63" y2="200.3"/><line class="cls-12" x1="417.93" y1="201.77" x2="416.78" y2="200.3"/><line class="cls-12" x1="419.08" y1="194.45" x2="417.93" y2="201.77"/><line class="cls-12" x1="420.23" y1="198.84" x2="419.08" y2="194.45"/><line class="cls-12" x1="421.37" y1="200.3" x2="420.23" y2="198.84"/><line class="cls-12" x1="422.52" y1="192.98" x2="421.37" y2="200.3"/><line class="cls-12" x1="423.67" y1="197.37" x2="422.52" y2="192.98"/><line class="cls-12" x1="424.82" y1="197.37" x2="423.67" y2="197.37"/><line class="cls-12" x1="425.97" y1="198.84" x2="424.82" y2="197.37"/><line class="cls-12" x1="427.11" y1="198.84" x2="425.97" y2="198.84"/><line class="cls-12" x1="428.26" y1="200.3" x2="427.11" y2="198.84"/><line class="cls-12" x1="429.41" y1="201.77" x2="428.26" y2="200.3"/><line class="cls-12" x1="430.56" y1="201.77" x2="429.41" y2="201.77"/><line class="cls-12" x1="431.71" y1="201.77" x2="430.56" y2="201.77"/><line class="cls-12" x1="432.85" y1="201.77" x2="431.71" y2="201.77"/><line class="cls-12" x1="434" y1="203.23" x2="432.85" y2="201.77"/><line class="cls-12" x1="435.15" y1="204.69" x2="434" y2="203.23"/><line class="cls-12" x1="436.3" y1="198.84" x2="435.15" y2="204.69"/><line class="cls-12" x1="437.45" y1="200.3" x2="436.3" y2="198.84"/><line class="cls-12" x1="438.6" y1="198.84" x2="437.45" y2="200.3"/><line class="cls-12" x1="439.74" y1="200.3" x2="438.6" y2="198.84"/><line class="cls-12" x1="440.89" y1="200.3" x2="439.74" y2="200.3"/><line class="cls-12" x1="442.04" y1="201.77" x2="440.89" y2="200.3"/><line class="cls-12" x1="443.19" y1="201.77" x2="442.04" y2="201.77"/><line class="cls-12" x1="444.34" y1="203.23" x2="443.19" y2="201.77"/><line class="cls-12" x1="445.48" y1="201.77" x2="444.34" y2="203.23"/><line class="cls-12" x1="446.63" y1="201.77" x2="445.48" y2="201.77"/><line class="cls-12" x1="447.78" y1="204.69" x2="446.63" y2="201.77"/><line class="cls-12" x1="448.93" y1="204.69" x2="447.78" y2="204.69"/><line class="cls-12" x1="450.08" y1="198.84" x2="448.93" y2="204.69"/><line class="cls-12" x1="451.23" y1="201.77" x2="450.08" y2="198.84"/><line class="cls-12" x1="452.37" y1="201.77" x2="451.23" y2="201.77"/><line class="cls-12" x1="453.52" y1="200.3" x2="452.37" y2="201.77"/><line class="cls-12" x1="454.67" y1="200.3" x2="453.52" y2="200.3"/><line class="cls-12" x1="455.82" y1="200.3" x2="454.67" y2="200.3"/><line class="cls-12" x1="456.97" y1="200.3" x2="455.82" y2="200.3"/><line class="cls-12" x1="458.11" y1="200.3" x2="456.97" y2="200.3"/><line class="cls-12" x1="459.26" y1="201.77" x2="458.11" y2="200.3"/><line class="cls-12" x1="460.41" y1="203.23" x2="459.26" y2="201.77"/><line class="cls-12" x1="461.56" y1="204.69" x2="460.41" y2="203.23"/><line class="cls-12" x1="462.71" y1="204.69" x2="461.56" y2="204.69"/><line class="cls-12" x1="463.86" y1="200.3" x2="462.71" y2="204.69"/><line class="cls-12" x1="465" y1="201.77" x2="463.86" y2="200.3"/><line class="cls-12" x1="466.15" y1="201.77" x2="465" y2="201.77"/><line class="cls-12" x1="467.3" y1="201.77" x2="466.15" y2="201.77"/><line class="cls-12" x1="468.45" y1="203.23" x2="467.3" y2="201.77"/><line class="cls-12" x1="469.6" y1="203.23" x2="468.45" y2="203.23"/><line class="cls-12" x1="470.74" y1="203.23" x2="469.6" y2="203.23"/><line class="cls-12" x1="471.89" y1="203.23" x2="470.74" y2="203.23"/><line class="cls-12" x1="473.04" y1="204.69" x2="471.89" y2="203.23"/><line class="cls-12" x1="474.19" y1="204.69" x2="473.04" y2="204.69"/><line class="cls-12" x1="475.34" y1="204.69" x2="474.19" y2="204.69"/><line class="cls-12" x1="476.49" y1="204.69" x2="475.34" y2="204.69"/><line class="cls-12" x1="477.63" y1="200.3" x2="476.49" y2="204.69"/><line class="cls-12" x1="478.78" y1="203.23" x2="477.63" y2="200.3"/><line class="cls-12" x1="479.93" y1="201.77" x2="478.78" y2="203.23"/><line class="cls-12" x1="481.08" y1="203.23" x2="479.93" y2="201.77"/><line class="cls-12" x1="482.23" y1="203.23" x2="481.08" y2="203.23"/><line class="cls-12" x1="483.37" y1="203.23" x2="482.23" y2="203.23"/><line class="cls-12" x1="484.52" y1="203.23" x2="483.37" y2="203.23"/><line class="cls-12" x1="485.67" y1="204.69" x2="484.52" y2="203.23"/><line class="cls-12" x1="486.82" y1="204.69" x2="485.67" y2="204.69"/><line class="cls-12" x1="487.97" y1="204.69" x2="486.82" y2="204.69"/><line class="cls-12" x1="489.11" y1="206.16" x2="487.97" y2="204.69"/><line class="cls-12" x1="490.26" y1="206.16" x2="489.11" y2="206.16"/><line class="cls-12" x1="530.11" y1="137.58" x2="528.97" y2="66.08"/><line class="cls-12" x1="531.26" y1="143.42" x2="530.11" y2="137.58"/><line class="cls-12" x1="532.4" y1="125.91" x2="531.26" y2="143.42"/><line class="cls-12" x1="533.55" y1="63.16" x2="532.4" y2="125.91"/><line class="cls-12" x1="534.7" y1="102.56" x2="533.55" y2="63.16"/><line class="cls-12" x1="535.84" y1="139.04" x2="534.7" y2="102.56"/><line class="cls-12" x1="536.99" y1="147.79" x2="535.84" y2="139.04"/><line class="cls-12" x1="538.13" y1="155.09" x2="536.99" y2="147.79"/><line class="cls-12" x1="539.28" y1="155.09" x2="538.13" y2="155.09"/><line class="cls-12" x1="540.43" y1="156.55" x2="539.28" y2="155.09"/><line class="cls-12" x1="541.57" y1="163.85" x2="540.43" y2="156.55"/><line class="cls-12" x1="542.72" y1="134.66" x2="541.57" y2="163.85"/><line class="cls-12" x1="543.86" y1="158.01" x2="542.72" y2="134.66"/><line class="cls-12" x1="545.01" y1="136.12" x2="543.86" y2="158.01"/><line class="cls-12" x1="546.16" y1="140.5" x2="545.01" y2="136.12"/><line class="cls-12" x1="547.3" y1="140.5" x2="546.16" y2="140.5"/><line class="cls-12" x1="548.45" y1="146.34" x2="547.3" y2="140.5"/><line class="cls-12" x1="549.59" y1="152.17" x2="548.45" y2="146.34"/><line class="cls-12" x1="550.74" y1="159.47" x2="549.59" y2="152.17"/><line class="cls-12" x1="551.89" y1="169.68" x2="550.74" y2="159.47"/><line class="cls-12" x1="553.03" y1="150.71" x2="551.89" y2="169.68"/><line class="cls-12" x1="554.18" y1="168.22" x2="553.03" y2="150.71"/><line class="cls-12" x1="555.32" y1="172.6" x2="554.18" y2="168.22"/><line class="cls-12" x1="556.47" y1="146.34" x2="555.32" y2="172.6"/><line class="cls-12" x1="557.62" y1="169.68" x2="556.47" y2="146.34"/><line class="cls-12" x1="558.76" y1="165.3" x2="557.62" y2="169.68"/><line class="cls-12" x1="559.91" y1="172.6" x2="558.76" y2="165.3"/><line class="cls-12" x1="561.05" y1="171.14" x2="559.91" y2="172.6"/><line class="cls-12" x1="562.2" y1="166.76" x2="561.05" y2="171.14"/><line class="cls-12" x1="563.35" y1="158.01" x2="562.2" y2="166.76"/><line class="cls-12" x1="564.49" y1="174.06" x2="563.35" y2="158.01"/><line class="cls-12" x1="565.64" y1="175.52" x2="564.49" y2="174.06"/><line class="cls-12" x1="566.78" y1="184.27" x2="565.64" y2="175.52"/><line class="cls-12" x1="567.93" y1="184.27" x2="566.78" y2="184.27"/><line class="cls-12" x1="569.08" y1="188.65" x2="567.93" y2="184.27"/><line class="cls-12" x1="570.22" y1="166.76" x2="569.08" y2="188.65"/><line class="cls-12" x1="571.37" y1="178.44" x2="570.22" y2="166.76"/><line class="cls-12" x1="572.51" y1="172.6" x2="571.37" y2="178.44"/><line class="cls-12" x1="573.66" y1="163.85" x2="572.51" y2="172.6"/><line class="cls-12" x1="574.81" y1="172.6" x2="573.66" y2="163.85"/><line class="cls-12" x1="575.95" y1="166.76" x2="574.81" y2="172.6"/><line class="cls-12" x1="577.1" y1="172.6" x2="575.95" y2="166.76"/><line class="cls-12" x1="578.24" y1="179.9" x2="577.1" y2="172.6"/><line class="cls-12" x1="579.39" y1="182.81" x2="578.24" y2="179.9"/><line class="cls-12" x1="580.54" y1="182.81" x2="579.39" y2="182.81"/><line class="cls-12" x1="581.68" y1="181.36" x2="580.54" y2="182.81"/><line class="cls-12" x1="582.83" y1="191.57" x2="581.68" y2="181.36"/><line class="cls-12" x1="583.97" y1="166.76" x2="582.83" y2="191.57"/><line class="cls-12" x1="585.12" y1="185.73" x2="583.97" y2="166.76"/><line class="cls-12" x1="586.27" y1="185.73" x2="585.12" y2="185.73"/><line class="cls-12" x1="587.41" y1="181.36" x2="586.27" y2="185.73"/><line class="cls-12" x1="588.56" y1="184.27" x2="587.41" y2="181.36"/><line class="cls-12" x1="589.7" y1="187.19" x2="588.56" y2="184.27"/><line class="cls-12" x1="590.85" y1="184.27" x2="589.7" y2="187.19"/><line class="cls-12" x1="592" y1="187.19" x2="590.85" y2="184.27"/><line class="cls-12" x1="593.14" y1="178.44" x2="592" y2="187.19"/><line class="cls-12" x1="594.29" y1="176.98" x2="593.14" y2="178.44"/><line class="cls-12" x1="595.43" y1="179.9" x2="594.29" y2="176.98"/><line class="cls-12" x1="596.58" y1="190.11" x2="595.43" y2="179.9"/><line class="cls-12" x1="597.73" y1="175.52" x2="596.58" y2="190.11"/><line class="cls-12" x1="598.87" y1="182.81" x2="597.73" y2="175.52"/><line class="cls-12" x1="600.02" y1="185.73" x2="598.87" y2="182.81"/><line class="cls-12" x1="601.16" y1="182.81" x2="600.02" y2="185.73"/><line class="cls-12" x1="602.31" y1="185.73" x2="601.16" y2="182.81"/><line class="cls-12" x1="603.46" y1="181.36" x2="602.31" y2="185.73"/><line class="cls-12" x1="604.6" y1="187.19" x2="603.46" y2="181.36"/><line class="cls-12" x1="605.75" y1="187.19" x2="604.6" y2="187.19"/><line class="cls-12" x1="606.89" y1="190.11" x2="605.75" y2="187.19"/><line class="cls-12" x1="608.04" y1="187.19" x2="606.89" y2="190.11"/><line class="cls-12" x1="609.19" y1="191.57" x2="608.04" y2="187.19"/><line class="cls-12" x1="610.33" y1="194.49" x2="609.19" y2="191.57"/><line class="cls-12" x1="611.48" y1="185.73" x2="610.33" y2="194.49"/><line class="cls-12" x1="612.62" y1="191.57" x2="611.48" y2="185.73"/><line class="cls-12" x1="613.77" y1="193.03" x2="612.62" y2="191.57"/><line class="cls-12" x1="614.92" y1="190.11" x2="613.77" y2="193.03"/><line class="cls-12" x1="616.06" y1="190.11" x2="614.92" y2="190.11"/><line class="cls-12" x1="617.21" y1="194.49" x2="616.06" y2="190.11"/><line class="cls-12" x1="618.35" y1="195.95" x2="617.21" y2="194.49"/><line class="cls-12" x1="619.5" y1="193.03" x2="618.35" y2="195.95"/><line class="cls-12" x1="620.65" y1="194.49" x2="619.5" y2="193.03"/><line class="cls-12" x1="621.79" y1="197.41" x2="620.65" y2="194.49"/><line class="cls-12" x1="622.94" y1="200.32" x2="621.79" y2="197.41"/><line class="cls-12" x1="624.08" y1="198.87" x2="622.94" y2="200.32"/><line class="cls-12" x1="625.23" y1="190.11" x2="624.08" y2="198.87"/><line class="cls-12" x1="626.38" y1="193.03" x2="625.23" y2="190.11"/><line class="cls-12" x1="627.52" y1="193.03" x2="626.38" y2="193.03"/><line class="cls-12" x1="628.67" y1="194.49" x2="627.52" y2="193.03"/><line class="cls-12" x1="629.81" y1="193.03" x2="628.67" y2="194.49"/><line class="cls-12" x1="630.96" y1="195.95" x2="629.81" y2="193.03"/><line class="cls-12" x1="632.11" y1="195.95" x2="630.96" y2="195.95"/><line class="cls-12" x1="633.25" y1="197.41" x2="632.11" y2="195.95"/><line class="cls-12" x1="634.4" y1="198.87" x2="633.25" y2="197.41"/><line class="cls-12" x1="635.54" y1="197.41" x2="634.4" y2="198.87"/><line class="cls-12" x1="636.69" y1="198.87" x2="635.54" y2="197.41"/><line class="cls-12" x1="637.84" y1="200.32" x2="636.69" y2="198.87"/><line class="cls-12" x1="638.98" y1="194.49" x2="637.84" y2="200.32"/><line class="cls-12" x1="640.13" y1="194.49" x2="638.98" y2="194.49"/><line class="cls-12" x1="641.27" y1="195.95" x2="640.13" y2="194.49"/><line class="cls-12" x1="642.42" y1="195.95" x2="641.27" y2="195.95"/><line class="cls-12" x1="643.57" y1="195.95" x2="642.42" y2="195.95"/><line class="cls-12" x1="644.71" y1="197.41" x2="643.57" y2="195.95"/><line class="cls-12" x1="645.86" y1="197.41" x2="644.71" y2="197.41"/><line class="cls-12" x1="647" y1="198.87" x2="645.86" y2="197.41"/><line class="cls-12" x1="648.15" y1="198.87" x2="647" y2="198.87"/><line class="cls-12" x1="649.3" y1="200.32" x2="648.15" y2="198.87"/><line class="cls-12" x1="650.44" y1="200.32" x2="649.3" y2="200.32"/><line class="cls-12" x1="651.59" y1="200.32" x2="650.44" y2="200.32"/><line class="cls-12" x1="652.73" y1="195.95" x2="651.59" y2="200.32"/><line class="cls-12" x1="653.88" y1="194.49" x2="652.73" y2="195.95"/><line class="cls-12" x1="655.03" y1="197.41" x2="653.88" y2="194.49"/><line class="cls-12" x1="656.17" y1="197.41" x2="655.03" y2="197.41"/><line class="cls-12" x1="657.32" y1="198.87" x2="656.17" y2="197.41"/><line class="cls-12" x1="658.46" y1="200.32" x2="657.32" y2="198.87"/><line class="cls-12" x1="659.61" y1="198.87" x2="658.46" y2="200.32"/><line class="cls-12" x1="660.76" y1="198.87" x2="659.61" y2="198.87"/><line class="cls-12" x1="661.9" y1="200.32" x2="660.76" y2="198.87"/><line class="cls-12" x1="663.05" y1="201.78" x2="661.9" y2="200.32"/><line class="cls-12" x1="664.19" y1="200.32" x2="663.05" y2="201.78"/><line class="cls-12" x1="665.34" y1="201.78" x2="664.19" y2="200.32"/><line class="cls-12" x1="666.49" y1="195.95" x2="665.34" y2="201.78"/><line class="cls-12" x1="667.63" y1="200.32" x2="666.49" y2="195.95"/><line class="cls-12" x1="668.78" y1="197.41" x2="667.63" y2="200.32"/><line class="cls-12" x1="669.92" y1="198.87" x2="668.78" y2="197.41"/><line class="cls-12" x1="671.07" y1="198.87" x2="669.92" y2="198.87"/><line class="cls-12" x1="672.22" y1="200.32" x2="671.07" y2="198.87"/><line class="cls-12" x1="673.36" y1="200.32" x2="672.22" y2="200.32"/><line class="cls-12" x1="674.51" y1="201.78" x2="673.36" y2="200.32"/><line class="cls-12" x1="675.65" y1="201.78" x2="674.51" y2="201.78"/><line class="cls-12" x1="676.8" y1="201.78" x2="675.65" y2="201.78"/><line class="cls-12" x1="677.95" y1="203.24" x2="676.8" y2="201.78"/><line class="cls-12" x1="679.09" y1="203.24" x2="677.95" y2="203.24"/><line class="cls-12" x1="680.24" y1="198.87" x2="679.09" y2="203.24"/><line class="cls-12" x1="681.38" y1="201.78" x2="680.24" y2="198.87"/><line class="cls-12" x1="682.53" y1="201.78" x2="681.38" y2="201.78"/><line class="cls-12" x1="683.68" y1="200.32" x2="682.53" y2="201.78"/><line class="cls-12" x1="684.82" y1="201.78" x2="683.68" y2="200.32"/><line class="cls-12" x1="685.97" y1="201.78" x2="684.82" y2="201.78"/><line class="cls-12" x1="687.11" y1="201.78" x2="685.97" y2="201.78"/><line class="cls-12" x1="688.26" y1="200.32" x2="687.11" y2="201.78"/><line class="cls-12" x1="689.41" y1="201.78" x2="688.26" y2="200.32"/><line class="cls-12" x1="690.55" y1="203.24" x2="689.41" y2="201.78"/><line class="cls-12" x1="691.7" y1="204.7" x2="690.55" y2="203.24"/><line class="cls-12" x1="692.84" y1="203.24" x2="691.7" y2="204.7"/><line class="cls-12" x1="693.99" y1="201.78" x2="692.84" y2="203.24"/><line class="cls-12" x1="695.14" y1="203.24" x2="693.99" y2="201.78"/><line class="cls-12" x1="696.28" y1="203.24" x2="695.14" y2="203.24"/><line class="cls-12" x1="697.43" y1="203.24" x2="696.28" y2="203.24"/><line class="cls-12" x1="698.57" y1="203.24" x2="697.43" y2="203.24"/><line class="cls-12" x1="699.72" y1="203.24" x2="698.57" y2="203.24"/><line class="cls-12" x1="700.87" y1="203.24" x2="699.72" y2="203.24"/><line class="cls-12" x1="702.01" y1="203.24" x2="700.87" y2="203.24"/><line class="cls-12" x1="703.16" y1="203.24" x2="702.01" y2="203.24"/><line class="cls-12" x1="704.3" y1="204.7" x2="703.16" y2="203.24"/><line class="cls-12" x1="705.45" y1="204.7" x2="704.3" y2="204.7"/><line class="cls-12" x1="706.6" y1="204.7" x2="705.45" y2="204.7"/><line class="cls-12" x1="707.74" y1="203.24" x2="706.6" y2="204.7"/><line class="cls-12" x1="708.89" y1="203.24" x2="707.74" y2="203.24"/><line class="cls-12" x1="710.03" y1="203.24" x2="708.89" y2="203.24"/><line class="cls-12" x1="711.18" y1="203.24" x2="710.03" y2="203.24"/><line class="cls-12" x1="712.33" y1="201.78" x2="711.18" y2="203.24"/><line class="cls-12" x1="713.47" y1="203.24" x2="712.33" y2="201.78"/><line class="cls-12" x1="714.62" y1="203.24" x2="713.47" y2="203.24"/><line class="cls-12" x1="715.76" y1="204.7" x2="714.62" y2="203.24"/><line class="cls-12" x1="716.91" y1="203.24" x2="715.76" y2="204.7"/><line class="cls-12" x1="718.06" y1="203.24" x2="716.91" y2="203.24"/><line class="cls-12" x1="719.2" y1="203.24" x2="718.06" y2="203.24"/><line class="cls-12" x1="720.35" y1="204.7" x2="719.2" y2="203.24"/><line class="cls-12" x1="721.5" y1="201.78" x2="720.35" y2="204.7"/><line class="cls-12" x1="722.64" y1="201.78" x2="721.5" y2="201.78"/><line class="cls-12" x1="723.79" y1="201.78" x2="722.64" y2="201.78"/><line class="cls-12" x1="724.93" y1="201.78" x2="723.79" y2="201.78"/><line class="cls-12" x1="726.08" y1="203.24" x2="724.93" y2="201.78"/><line class="cls-12" x1="727.23" y1="204.7" x2="726.08" y2="203.24"/><line class="cls-12" x1="728.37" y1="203.24" x2="727.23" y2="204.7"/><line class="cls-12" x1="729.52" y1="203.24" x2="728.37" y2="203.24"/><line class="cls-12" x1="730.66" y1="203.24" x2="729.52" y2="203.24"/><line class="cls-12" x1="731.81" y1="203.24" x2="730.66" y2="203.24"/><line class="cls-12" x1="732.96" y1="204.7" x2="731.81" y2="203.24"/><line class="cls-12" x1="734.1" y1="204.7" x2="732.96" y2="204.7"/></svg>